G75*
%MOIN*%
%OFA0B0*%
%FSLAX25Y25*%
%IPPOS*%
%LPD*%
%AMOC8*
5,1,8,0,0,1.08239X$1,22.5*
%
%ADD10C,0.00600*%
D10*
X0329735Y0092332D02*
X0332235Y0089832D01*
X0337235Y0089832D01*
X0339735Y0092332D01*
X0339735Y0097332D01*
X0337235Y0099832D01*
X0339735Y0102332D01*
X0339735Y0107332D01*
X0337235Y0109832D01*
X0332235Y0109832D01*
X0329735Y0107332D01*
X0329735Y0102332D01*
X0332235Y0099832D01*
X0329735Y0097332D01*
X0329735Y0092332D01*
X0332235Y0099832D02*
X0337235Y0099832D01*
X0337235Y0109832D02*
X0339735Y0112332D01*
X0339735Y0117332D01*
X0337235Y0119832D01*
X0339735Y0122332D01*
X0339735Y0127332D01*
X0337235Y0129832D01*
X0339735Y0132332D01*
X0339735Y0137332D01*
X0337235Y0139832D01*
X0332235Y0139832D01*
X0329735Y0137332D01*
X0329735Y0132332D01*
X0332235Y0129832D01*
X0329735Y0127332D01*
X0329735Y0122332D01*
X0332235Y0119832D01*
X0329735Y0117332D01*
X0329735Y0112332D01*
X0332235Y0109832D01*
X0332235Y0119832D02*
X0337235Y0119832D01*
X0337235Y0129832D02*
X0332235Y0129832D01*
X0332235Y0139832D02*
X0329735Y0142332D01*
X0329735Y0147332D01*
X0332235Y0149832D01*
X0329735Y0152332D01*
X0329735Y0157332D01*
X0332235Y0159832D01*
X0329735Y0162332D01*
X0329735Y0167332D01*
X0332235Y0169832D01*
X0337235Y0169832D01*
X0339735Y0167332D01*
X0339735Y0162332D01*
X0337235Y0159832D01*
X0332235Y0159832D01*
X0337235Y0159832D02*
X0339735Y0157332D01*
X0339735Y0152332D01*
X0337235Y0149832D01*
X0332235Y0149832D01*
X0337235Y0149832D02*
X0339735Y0147332D01*
X0339735Y0142332D01*
X0337235Y0139832D01*
M02*
