G75*
%MOIN*%
%OFA0B0*%
%FSLAX25Y25*%
%IPPOS*%
%LPD*%
%AMOC8*
5,1,8,0,0,1.08239X$1,22.5*
%
%ADD10C,0.00000*%
%ADD11C,0.00800*%
%ADD12C,0.06000*%
%ADD13OC8,0.06300*%
%ADD14C,0.06300*%
%ADD15OC8,0.05200*%
%ADD16OC8,0.07500*%
%ADD17R,0.05937X0.05937*%
%ADD18C,0.05937*%
%ADD19C,0.06600*%
%ADD20C,0.03200*%
D10*
X0003500Y0001000D02*
X0001000Y0353451D01*
X0455921Y0353451D01*
X0455921Y0001000D01*
X0003500Y0001000D01*
X0060750Y0327500D02*
X0060752Y0327661D01*
X0060758Y0327821D01*
X0060768Y0327982D01*
X0060782Y0328142D01*
X0060800Y0328302D01*
X0060821Y0328461D01*
X0060847Y0328620D01*
X0060877Y0328778D01*
X0060910Y0328935D01*
X0060948Y0329092D01*
X0060989Y0329247D01*
X0061034Y0329401D01*
X0061083Y0329554D01*
X0061136Y0329706D01*
X0061192Y0329857D01*
X0061253Y0330006D01*
X0061316Y0330154D01*
X0061384Y0330300D01*
X0061455Y0330444D01*
X0061529Y0330586D01*
X0061607Y0330727D01*
X0061689Y0330865D01*
X0061774Y0331002D01*
X0061862Y0331136D01*
X0061954Y0331268D01*
X0062049Y0331398D01*
X0062147Y0331526D01*
X0062248Y0331651D01*
X0062352Y0331773D01*
X0062459Y0331893D01*
X0062569Y0332010D01*
X0062682Y0332125D01*
X0062798Y0332236D01*
X0062917Y0332345D01*
X0063038Y0332450D01*
X0063162Y0332553D01*
X0063288Y0332653D01*
X0063416Y0332749D01*
X0063547Y0332842D01*
X0063681Y0332932D01*
X0063816Y0333019D01*
X0063954Y0333102D01*
X0064093Y0333182D01*
X0064235Y0333258D01*
X0064378Y0333331D01*
X0064523Y0333400D01*
X0064670Y0333466D01*
X0064818Y0333528D01*
X0064968Y0333586D01*
X0065119Y0333641D01*
X0065272Y0333692D01*
X0065426Y0333739D01*
X0065581Y0333782D01*
X0065737Y0333821D01*
X0065893Y0333857D01*
X0066051Y0333888D01*
X0066209Y0333916D01*
X0066368Y0333940D01*
X0066528Y0333960D01*
X0066688Y0333976D01*
X0066848Y0333988D01*
X0067009Y0333996D01*
X0067170Y0334000D01*
X0067330Y0334000D01*
X0067491Y0333996D01*
X0067652Y0333988D01*
X0067812Y0333976D01*
X0067972Y0333960D01*
X0068132Y0333940D01*
X0068291Y0333916D01*
X0068449Y0333888D01*
X0068607Y0333857D01*
X0068763Y0333821D01*
X0068919Y0333782D01*
X0069074Y0333739D01*
X0069228Y0333692D01*
X0069381Y0333641D01*
X0069532Y0333586D01*
X0069682Y0333528D01*
X0069830Y0333466D01*
X0069977Y0333400D01*
X0070122Y0333331D01*
X0070265Y0333258D01*
X0070407Y0333182D01*
X0070546Y0333102D01*
X0070684Y0333019D01*
X0070819Y0332932D01*
X0070953Y0332842D01*
X0071084Y0332749D01*
X0071212Y0332653D01*
X0071338Y0332553D01*
X0071462Y0332450D01*
X0071583Y0332345D01*
X0071702Y0332236D01*
X0071818Y0332125D01*
X0071931Y0332010D01*
X0072041Y0331893D01*
X0072148Y0331773D01*
X0072252Y0331651D01*
X0072353Y0331526D01*
X0072451Y0331398D01*
X0072546Y0331268D01*
X0072638Y0331136D01*
X0072726Y0331002D01*
X0072811Y0330865D01*
X0072893Y0330727D01*
X0072971Y0330586D01*
X0073045Y0330444D01*
X0073116Y0330300D01*
X0073184Y0330154D01*
X0073247Y0330006D01*
X0073308Y0329857D01*
X0073364Y0329706D01*
X0073417Y0329554D01*
X0073466Y0329401D01*
X0073511Y0329247D01*
X0073552Y0329092D01*
X0073590Y0328935D01*
X0073623Y0328778D01*
X0073653Y0328620D01*
X0073679Y0328461D01*
X0073700Y0328302D01*
X0073718Y0328142D01*
X0073732Y0327982D01*
X0073742Y0327821D01*
X0073748Y0327661D01*
X0073750Y0327500D01*
X0073748Y0327339D01*
X0073742Y0327179D01*
X0073732Y0327018D01*
X0073718Y0326858D01*
X0073700Y0326698D01*
X0073679Y0326539D01*
X0073653Y0326380D01*
X0073623Y0326222D01*
X0073590Y0326065D01*
X0073552Y0325908D01*
X0073511Y0325753D01*
X0073466Y0325599D01*
X0073417Y0325446D01*
X0073364Y0325294D01*
X0073308Y0325143D01*
X0073247Y0324994D01*
X0073184Y0324846D01*
X0073116Y0324700D01*
X0073045Y0324556D01*
X0072971Y0324414D01*
X0072893Y0324273D01*
X0072811Y0324135D01*
X0072726Y0323998D01*
X0072638Y0323864D01*
X0072546Y0323732D01*
X0072451Y0323602D01*
X0072353Y0323474D01*
X0072252Y0323349D01*
X0072148Y0323227D01*
X0072041Y0323107D01*
X0071931Y0322990D01*
X0071818Y0322875D01*
X0071702Y0322764D01*
X0071583Y0322655D01*
X0071462Y0322550D01*
X0071338Y0322447D01*
X0071212Y0322347D01*
X0071084Y0322251D01*
X0070953Y0322158D01*
X0070819Y0322068D01*
X0070684Y0321981D01*
X0070546Y0321898D01*
X0070407Y0321818D01*
X0070265Y0321742D01*
X0070122Y0321669D01*
X0069977Y0321600D01*
X0069830Y0321534D01*
X0069682Y0321472D01*
X0069532Y0321414D01*
X0069381Y0321359D01*
X0069228Y0321308D01*
X0069074Y0321261D01*
X0068919Y0321218D01*
X0068763Y0321179D01*
X0068607Y0321143D01*
X0068449Y0321112D01*
X0068291Y0321084D01*
X0068132Y0321060D01*
X0067972Y0321040D01*
X0067812Y0321024D01*
X0067652Y0321012D01*
X0067491Y0321004D01*
X0067330Y0321000D01*
X0067170Y0321000D01*
X0067009Y0321004D01*
X0066848Y0321012D01*
X0066688Y0321024D01*
X0066528Y0321040D01*
X0066368Y0321060D01*
X0066209Y0321084D01*
X0066051Y0321112D01*
X0065893Y0321143D01*
X0065737Y0321179D01*
X0065581Y0321218D01*
X0065426Y0321261D01*
X0065272Y0321308D01*
X0065119Y0321359D01*
X0064968Y0321414D01*
X0064818Y0321472D01*
X0064670Y0321534D01*
X0064523Y0321600D01*
X0064378Y0321669D01*
X0064235Y0321742D01*
X0064093Y0321818D01*
X0063954Y0321898D01*
X0063816Y0321981D01*
X0063681Y0322068D01*
X0063547Y0322158D01*
X0063416Y0322251D01*
X0063288Y0322347D01*
X0063162Y0322447D01*
X0063038Y0322550D01*
X0062917Y0322655D01*
X0062798Y0322764D01*
X0062682Y0322875D01*
X0062569Y0322990D01*
X0062459Y0323107D01*
X0062352Y0323227D01*
X0062248Y0323349D01*
X0062147Y0323474D01*
X0062049Y0323602D01*
X0061954Y0323732D01*
X0061862Y0323864D01*
X0061774Y0323998D01*
X0061689Y0324135D01*
X0061607Y0324273D01*
X0061529Y0324414D01*
X0061455Y0324556D01*
X0061384Y0324700D01*
X0061316Y0324846D01*
X0061253Y0324994D01*
X0061192Y0325143D01*
X0061136Y0325294D01*
X0061083Y0325446D01*
X0061034Y0325599D01*
X0060989Y0325753D01*
X0060948Y0325908D01*
X0060910Y0326065D01*
X0060877Y0326222D01*
X0060847Y0326380D01*
X0060821Y0326539D01*
X0060800Y0326698D01*
X0060782Y0326858D01*
X0060768Y0327018D01*
X0060758Y0327179D01*
X0060752Y0327339D01*
X0060750Y0327500D01*
D11*
X0268900Y0335435D02*
X0270435Y0333900D01*
X0273504Y0333900D01*
X0275039Y0335435D01*
X0275039Y0336969D01*
X0273504Y0338504D01*
X0270435Y0338504D01*
X0268900Y0340039D01*
X0268900Y0341573D01*
X0270435Y0343108D01*
X0273504Y0343108D01*
X0275039Y0341573D01*
X0278108Y0343108D02*
X0278108Y0333900D01*
X0278108Y0338504D02*
X0284246Y0338504D01*
X0287316Y0335435D02*
X0288850Y0333900D01*
X0291920Y0333900D01*
X0293454Y0335435D01*
X0293454Y0343108D01*
X0296524Y0343108D02*
X0301128Y0343108D01*
X0302662Y0341573D01*
X0302662Y0340039D01*
X0301128Y0338504D01*
X0296524Y0338504D01*
X0301128Y0338504D02*
X0302662Y0336969D01*
X0302662Y0335435D01*
X0301128Y0333900D01*
X0296524Y0333900D01*
X0296524Y0343108D01*
X0305731Y0343108D02*
X0305731Y0333900D01*
X0305731Y0338504D02*
X0311870Y0338504D01*
X0314939Y0338504D02*
X0321078Y0338504D01*
X0321078Y0340039D02*
X0321078Y0333900D01*
X0324147Y0333900D02*
X0324147Y0343108D01*
X0327216Y0340039D01*
X0330286Y0343108D01*
X0330286Y0333900D01*
X0321078Y0340039D02*
X0318009Y0343108D01*
X0314939Y0340039D01*
X0314939Y0333900D01*
X0311870Y0333900D02*
X0311870Y0343108D01*
X0287316Y0343108D02*
X0287316Y0335435D01*
X0284246Y0333900D02*
X0284246Y0343108D01*
X0342563Y0343108D02*
X0342563Y0333900D01*
X0342563Y0336969D02*
X0347167Y0336969D01*
X0348701Y0338504D01*
X0348701Y0341573D01*
X0347167Y0343108D01*
X0342563Y0343108D01*
X0345632Y0336969D02*
X0348701Y0333900D01*
X0360979Y0333900D02*
X0360979Y0343108D01*
X0365583Y0343108D01*
X0367117Y0341573D01*
X0367117Y0338504D01*
X0365583Y0336969D01*
X0360979Y0336969D01*
X0370186Y0338504D02*
X0376325Y0338504D01*
X0376325Y0340039D02*
X0376325Y0333900D01*
X0379394Y0333900D02*
X0379394Y0343108D01*
X0385533Y0333900D01*
X0385533Y0343108D01*
X0388602Y0341573D02*
X0388602Y0335435D01*
X0390137Y0333900D01*
X0393206Y0333900D01*
X0394741Y0335435D01*
X0397810Y0333900D02*
X0397810Y0343108D01*
X0394741Y0341573D02*
X0393206Y0343108D01*
X0390137Y0343108D01*
X0388602Y0341573D01*
X0397810Y0338504D02*
X0403949Y0338504D01*
X0407018Y0338504D02*
X0413156Y0338504D01*
X0413156Y0340039D02*
X0413156Y0333900D01*
X0416226Y0333900D02*
X0422364Y0333900D01*
X0416226Y0333900D02*
X0416226Y0343108D01*
X0413156Y0340039D02*
X0410087Y0343108D01*
X0407018Y0340039D01*
X0407018Y0333900D01*
X0403949Y0333900D02*
X0403949Y0343108D01*
X0376325Y0340039D02*
X0373256Y0343108D01*
X0370186Y0340039D01*
X0370186Y0333900D01*
D12*
X0360250Y0298500D02*
X0354250Y0298500D01*
X0354250Y0288500D02*
X0360250Y0288500D01*
X0360250Y0278500D02*
X0354250Y0278500D01*
X0354250Y0268500D02*
X0360250Y0268500D01*
X0360250Y0258500D02*
X0354250Y0258500D01*
X0354250Y0248500D02*
X0360250Y0248500D01*
X0360250Y0238500D02*
X0354250Y0238500D01*
X0354250Y0228500D02*
X0360250Y0228500D01*
X0399250Y0248500D02*
X0405250Y0248500D01*
X0405250Y0258500D02*
X0399250Y0258500D01*
X0399250Y0268500D02*
X0405250Y0268500D01*
X0405250Y0278500D02*
X0399250Y0278500D01*
X0310250Y0278500D02*
X0304250Y0278500D01*
X0304250Y0268500D02*
X0310250Y0268500D01*
X0310250Y0258500D02*
X0304250Y0258500D01*
X0304250Y0248500D02*
X0310250Y0248500D01*
X0310250Y0238500D02*
X0304250Y0238500D01*
X0304250Y0228500D02*
X0310250Y0228500D01*
X0245250Y0223500D02*
X0239250Y0223500D01*
X0239250Y0233500D02*
X0245250Y0233500D01*
X0245250Y0243500D02*
X0239250Y0243500D01*
X0239250Y0253500D02*
X0245250Y0253500D01*
X0245250Y0263500D02*
X0239250Y0263500D01*
X0239250Y0273500D02*
X0245250Y0273500D01*
X0245250Y0283500D02*
X0239250Y0283500D01*
X0185250Y0283500D02*
X0179250Y0283500D01*
X0179250Y0273500D02*
X0185250Y0273500D01*
X0185250Y0263500D02*
X0179250Y0263500D01*
X0179250Y0253500D02*
X0185250Y0253500D01*
X0185250Y0243500D02*
X0179250Y0243500D01*
X0179250Y0233500D02*
X0185250Y0233500D01*
X0185250Y0223500D02*
X0179250Y0223500D01*
X0179250Y0213500D02*
X0185250Y0213500D01*
X0185250Y0203500D02*
X0179250Y0203500D01*
X0179250Y0193500D02*
X0185250Y0193500D01*
X0185250Y0183500D02*
X0179250Y0183500D01*
X0179250Y0173500D02*
X0185250Y0173500D01*
X0185250Y0163500D02*
X0179250Y0163500D01*
X0179250Y0153500D02*
X0185250Y0153500D01*
X0185250Y0143500D02*
X0179250Y0143500D01*
X0239250Y0143500D02*
X0245250Y0143500D01*
X0245250Y0153500D02*
X0239250Y0153500D01*
X0239250Y0163500D02*
X0245250Y0163500D01*
X0245250Y0173500D02*
X0239250Y0173500D01*
X0239250Y0183500D02*
X0245250Y0183500D01*
X0245250Y0193500D02*
X0239250Y0193500D01*
X0239250Y0203500D02*
X0245250Y0203500D01*
X0245250Y0213500D02*
X0239250Y0213500D01*
X0304250Y0163500D02*
X0310250Y0163500D01*
X0310250Y0153500D02*
X0304250Y0153500D01*
X0304250Y0143500D02*
X0310250Y0143500D01*
X0310250Y0133500D02*
X0304250Y0133500D01*
X0304250Y0123500D02*
X0310250Y0123500D01*
X0310250Y0113500D02*
X0304250Y0113500D01*
X0304250Y0103500D02*
X0310250Y0103500D01*
X0310250Y0093500D02*
X0304250Y0093500D01*
X0354250Y0093500D02*
X0360250Y0093500D01*
X0360250Y0103500D02*
X0354250Y0103500D01*
X0354250Y0113500D02*
X0360250Y0113500D01*
X0360250Y0123500D02*
X0354250Y0123500D01*
X0354250Y0133500D02*
X0360250Y0133500D01*
X0360250Y0143500D02*
X0354250Y0143500D01*
X0354250Y0153500D02*
X0360250Y0153500D01*
X0360250Y0163500D02*
X0354250Y0163500D01*
X0399250Y0143500D02*
X0405250Y0143500D01*
X0405250Y0133500D02*
X0399250Y0133500D01*
X0399250Y0123500D02*
X0405250Y0123500D01*
X0405250Y0113500D02*
X0399250Y0113500D01*
X0397250Y0081500D02*
X0397250Y0075500D01*
X0387250Y0075500D02*
X0387250Y0081500D01*
X0387250Y0066500D02*
X0387250Y0060500D01*
X0397250Y0060500D02*
X0397250Y0066500D01*
X0429250Y0183500D02*
X0435250Y0183500D01*
X0435250Y0193500D02*
X0429250Y0193500D01*
X0310250Y0288500D02*
X0304250Y0288500D01*
X0304250Y0298500D02*
X0310250Y0298500D01*
X0030250Y0238500D02*
X0024250Y0238500D01*
X0024250Y0228500D02*
X0030250Y0228500D01*
X0030250Y0218500D02*
X0024250Y0218500D01*
X0024250Y0208500D02*
X0030250Y0208500D01*
X0137250Y0071500D02*
X0137250Y0065500D01*
X0147250Y0065500D02*
X0147250Y0071500D01*
X0157250Y0071500D02*
X0157250Y0065500D01*
X0157250Y0051500D02*
X0157250Y0045500D01*
X0147250Y0045500D02*
X0147250Y0051500D01*
X0137250Y0051500D02*
X0137250Y0045500D01*
X0137250Y0031500D02*
X0137250Y0025500D01*
X0147250Y0025500D02*
X0147250Y0031500D01*
X0157250Y0031500D02*
X0157250Y0025500D01*
D13*
X0133500Y0136000D03*
X0162250Y0318500D03*
X0127250Y0323500D03*
X0207250Y0323500D03*
X0237250Y0323500D03*
X0387250Y0303500D03*
X0387250Y0193500D03*
D14*
X0377250Y0193500D03*
X0387250Y0313500D03*
X0247250Y0323500D03*
X0197250Y0323500D03*
X0162250Y0328500D03*
X0117250Y0323500D03*
X0133500Y0146000D03*
D15*
X0192250Y0113500D03*
X0217250Y0113500D03*
X0242250Y0113500D03*
X0267250Y0113500D03*
X0267250Y0138500D03*
X0267250Y0178500D03*
X0272250Y0208500D03*
X0272250Y0248500D03*
X0272250Y0273500D03*
X0272250Y0313500D03*
X0132250Y0233500D03*
X0092250Y0233500D03*
X0084750Y0203500D03*
X0044750Y0203500D03*
X0192250Y0073500D03*
X0217250Y0073500D03*
X0242250Y0073500D03*
X0267250Y0073500D03*
X0262250Y0033500D03*
X0272250Y0033500D03*
X0227250Y0033500D03*
X0217250Y0033500D03*
D16*
X0307250Y0034500D03*
X0307250Y0052500D03*
D17*
X0087250Y0028500D03*
X0037250Y0058500D03*
X0029750Y0156000D03*
X0087250Y0178500D03*
D18*
X0077250Y0178500D03*
X0067250Y0178500D03*
X0057250Y0178500D03*
X0047250Y0178500D03*
X0037250Y0178500D03*
X0027250Y0178500D03*
X0029750Y0146000D03*
X0029750Y0136000D03*
X0029750Y0126000D03*
X0047250Y0058500D03*
X0057250Y0058500D03*
X0067250Y0058500D03*
X0077250Y0058500D03*
X0077250Y0028500D03*
X0067250Y0028500D03*
X0057250Y0028500D03*
X0047250Y0028500D03*
X0037250Y0028500D03*
X0027250Y0028500D03*
D19*
X0057250Y0265200D02*
X0057250Y0271800D01*
X0067250Y0271800D02*
X0067250Y0265200D01*
X0077250Y0265200D02*
X0077250Y0271800D01*
D20*
X0067250Y0268500D02*
X0067250Y0263500D01*
X0092250Y0238500D01*
X0027250Y0238500D01*
X0022250Y0238500D01*
X0014750Y0231000D01*
X0014750Y0171000D01*
X0029750Y0156000D01*
X0029750Y0146000D02*
X0133500Y0146000D01*
X0157250Y0146000D01*
X0157250Y0083500D01*
X0147250Y0073500D01*
X0147250Y0068500D01*
X0147250Y0048500D01*
X0147250Y0028500D01*
X0137250Y0028500D02*
X0137250Y0023500D01*
X0144750Y0016000D01*
X0212250Y0016000D01*
X0227250Y0031000D01*
X0227250Y0033500D01*
X0262250Y0033500D01*
X0307250Y0034500D02*
X0307250Y0036000D01*
X0374750Y0036000D01*
X0397250Y0058500D01*
X0397250Y0063500D01*
X0397250Y0078500D02*
X0397250Y0083500D01*
X0377250Y0103500D01*
X0357250Y0103500D01*
X0352250Y0103500D01*
X0344750Y0106000D01*
X0344750Y0226000D01*
X0352250Y0238500D01*
X0357250Y0238500D01*
X0377250Y0193500D02*
X0377250Y0283500D01*
X0362250Y0298500D01*
X0357250Y0298500D01*
X0387250Y0303500D02*
X0387250Y0193500D01*
X0387250Y0183500D01*
X0432250Y0183500D01*
X0387250Y0183500D02*
X0387250Y0178500D01*
X0362250Y0153500D01*
X0357250Y0153500D01*
X0357250Y0163500D02*
X0357250Y0173500D01*
X0377250Y0193500D01*
X0267250Y0138500D02*
X0257250Y0141000D01*
X0257250Y0217250D01*
X0247250Y0223500D01*
X0242250Y0223500D01*
X0242250Y0203500D02*
X0237250Y0203500D01*
X0219750Y0196000D01*
X0219750Y0141000D01*
X0242250Y0128500D01*
X0242250Y0113500D01*
X0217250Y0113500D02*
X0212250Y0113500D01*
X0182250Y0143500D01*
X0169750Y0156000D02*
X0177250Y0163500D01*
X0182250Y0163500D01*
X0169750Y0156000D02*
X0169750Y0066000D01*
X0157250Y0053500D01*
X0157250Y0048500D01*
X0137250Y0048500D02*
X0137250Y0068500D01*
X0137250Y0048500D02*
X0137250Y0028500D01*
X0119750Y0203500D02*
X0084750Y0203500D01*
X0064750Y0203500D01*
X0049750Y0218500D01*
X0027250Y0218500D01*
X0092250Y0233500D02*
X0092250Y0238500D01*
X0132250Y0233500D02*
X0132250Y0301000D01*
X0159750Y0328500D01*
X0162250Y0328500D01*
X0207250Y0323500D02*
X0237250Y0323500D01*
X0182250Y0233500D02*
X0149750Y0233500D01*
X0119750Y0203500D01*
M02*
