G75*
%MOIN*%
%OFA0B0*%
%FSLAX25Y25*%
%IPPOS*%
%LPD*%
%AMOC8*
5,1,8,0,0,1.08239X$1,22.5*
%
%ADD10C,0.06000*%
%ADD11OC8,0.07600*%
%ADD12C,0.07600*%
%ADD13OC8,0.07000*%
%ADD14OC8,0.10000*%
%ADD15C,0.06600*%
%ADD16C,0.00000*%
D10*
X0054735Y0011832D02*
X0054735Y0017832D01*
X0064735Y0017832D02*
X0064735Y0011832D01*
X0074735Y0011832D02*
X0074735Y0017832D01*
X0084735Y0017832D02*
X0084735Y0011832D01*
X0094735Y0011832D02*
X0094735Y0017832D01*
X0104735Y0017832D02*
X0104735Y0011832D01*
X0114735Y0011832D02*
X0114735Y0017832D01*
X0144735Y0025582D02*
X0144735Y0031582D01*
X0154735Y0031582D02*
X0154735Y0025582D01*
X0164735Y0025582D02*
X0164735Y0031582D01*
X0164735Y0045582D02*
X0164735Y0051582D01*
X0154735Y0051582D02*
X0154735Y0045582D01*
X0144735Y0045582D02*
X0144735Y0051582D01*
X0144735Y0065582D02*
X0144735Y0071582D01*
X0154735Y0071582D02*
X0154735Y0065582D01*
X0164735Y0065582D02*
X0164735Y0071582D01*
X0206735Y0144832D02*
X0212735Y0144832D01*
X0212735Y0154832D02*
X0206735Y0154832D01*
X0206735Y0164832D02*
X0212735Y0164832D01*
X0212735Y0174832D02*
X0206735Y0174832D01*
X0206735Y0184832D02*
X0212735Y0184832D01*
X0212735Y0194832D02*
X0206735Y0194832D01*
X0206735Y0204832D02*
X0212735Y0204832D01*
X0212735Y0214832D02*
X0206735Y0214832D01*
X0206735Y0224832D02*
X0212735Y0224832D01*
X0212735Y0234832D02*
X0206735Y0234832D01*
X0206735Y0244832D02*
X0212735Y0244832D01*
X0212735Y0254832D02*
X0206735Y0254832D01*
X0206735Y0264832D02*
X0212735Y0264832D01*
X0212735Y0274832D02*
X0206735Y0274832D01*
X0206735Y0284832D02*
X0212735Y0284832D01*
X0266735Y0284832D02*
X0272735Y0284832D01*
X0272735Y0274832D02*
X0266735Y0274832D01*
X0266735Y0264832D02*
X0272735Y0264832D01*
X0272735Y0254832D02*
X0266735Y0254832D01*
X0266735Y0244832D02*
X0272735Y0244832D01*
X0272735Y0234832D02*
X0266735Y0234832D01*
X0266735Y0224832D02*
X0272735Y0224832D01*
X0272735Y0214832D02*
X0266735Y0214832D01*
X0266735Y0204832D02*
X0272735Y0204832D01*
X0272735Y0194832D02*
X0266735Y0194832D01*
X0266735Y0184832D02*
X0272735Y0184832D01*
X0272735Y0174832D02*
X0266735Y0174832D01*
X0266735Y0164832D02*
X0272735Y0164832D01*
X0272735Y0154832D02*
X0266735Y0154832D01*
X0266735Y0144832D02*
X0272735Y0144832D01*
X0331735Y0144832D02*
X0337735Y0144832D01*
X0337735Y0134832D02*
X0331735Y0134832D01*
X0331735Y0124832D02*
X0337735Y0124832D01*
X0337735Y0114832D02*
X0331735Y0114832D01*
X0331735Y0104832D02*
X0337735Y0104832D01*
X0337735Y0094832D02*
X0331735Y0094832D01*
X0381735Y0094832D02*
X0387735Y0094832D01*
X0387735Y0104832D02*
X0381735Y0104832D01*
X0381735Y0114832D02*
X0387735Y0114832D01*
X0387735Y0124832D02*
X0381735Y0124832D01*
X0381735Y0134832D02*
X0387735Y0134832D01*
X0387735Y0144832D02*
X0381735Y0144832D01*
X0381735Y0154832D02*
X0387735Y0154832D01*
X0387735Y0164832D02*
X0381735Y0164832D01*
X0337735Y0164832D02*
X0331735Y0164832D01*
X0331735Y0154832D02*
X0337735Y0154832D01*
X0426735Y0144832D02*
X0432735Y0144832D01*
X0432735Y0134832D02*
X0426735Y0134832D01*
X0426735Y0124832D02*
X0432735Y0124832D01*
X0432735Y0114832D02*
X0426735Y0114832D01*
X0387735Y0229832D02*
X0381735Y0229832D01*
X0381735Y0239832D02*
X0387735Y0239832D01*
X0387735Y0249832D02*
X0381735Y0249832D01*
X0381735Y0259832D02*
X0387735Y0259832D01*
X0387735Y0269832D02*
X0381735Y0269832D01*
X0381735Y0279832D02*
X0387735Y0279832D01*
X0387735Y0289832D02*
X0381735Y0289832D01*
X0381735Y0299832D02*
X0387735Y0299832D01*
X0426735Y0279832D02*
X0432735Y0279832D01*
X0432735Y0269832D02*
X0426735Y0269832D01*
X0426735Y0259832D02*
X0432735Y0259832D01*
X0432735Y0249832D02*
X0426735Y0249832D01*
X0337735Y0249832D02*
X0331735Y0249832D01*
X0331735Y0239832D02*
X0337735Y0239832D01*
X0337735Y0229832D02*
X0331735Y0229832D01*
X0331735Y0259832D02*
X0337735Y0259832D01*
X0337735Y0269832D02*
X0331735Y0269832D01*
X0331735Y0279832D02*
X0337735Y0279832D01*
X0337735Y0289832D02*
X0331735Y0289832D01*
X0331735Y0299832D02*
X0337735Y0299832D01*
X0114735Y0167832D02*
X0114735Y0161832D01*
X0104735Y0161832D02*
X0104735Y0167832D01*
X0094735Y0167832D02*
X0094735Y0161832D01*
X0084735Y0161832D02*
X0084735Y0167832D01*
X0074735Y0167832D02*
X0074735Y0161832D01*
X0064735Y0161832D02*
X0064735Y0167832D01*
X0054735Y0167832D02*
X0054735Y0161832D01*
X0054235Y0142332D02*
X0060235Y0142332D01*
X0060235Y0132332D02*
X0054235Y0132332D01*
X0051735Y0209832D02*
X0057735Y0209832D01*
X0057735Y0219832D02*
X0051735Y0219832D01*
X0051735Y0229832D02*
X0057735Y0229832D01*
X0057735Y0239832D02*
X0051735Y0239832D01*
D11*
X0040985Y0276082D03*
X0040985Y0289832D03*
X0150985Y0318582D03*
X0189735Y0327332D03*
X0228485Y0331082D03*
X0259735Y0331082D03*
X0414735Y0304832D03*
X0459735Y0194832D03*
X0459735Y0181082D03*
X0420985Y0183582D03*
X0424735Y0077332D03*
X0424735Y0067332D03*
X0410985Y0067332D03*
X0410985Y0077332D03*
X0144735Y0134832D03*
D12*
X0154735Y0134832D03*
X0189735Y0317332D03*
X0228485Y0321082D03*
X0259735Y0321082D03*
X0150985Y0328582D03*
X0414735Y0314832D03*
X0420985Y0193582D03*
D13*
X0312235Y0208582D03*
X0307235Y0223582D03*
X0307235Y0263582D03*
X0299735Y0274832D03*
X0299735Y0314832D03*
X0159735Y0239832D03*
X0119735Y0239832D03*
X0109735Y0203582D03*
X0069735Y0203582D03*
X0209735Y0102332D03*
X0248485Y0101082D03*
X0280985Y0102332D03*
X0304735Y0096082D03*
X0280985Y0062332D03*
X0248485Y0061082D03*
X0255985Y0038582D03*
X0255985Y0028582D03*
X0215985Y0028582D03*
X0215985Y0038582D03*
X0209735Y0062332D03*
X0304735Y0136082D03*
X0312235Y0168582D03*
D14*
X0334735Y0053832D03*
X0334735Y0035832D03*
D15*
X0104735Y0266532D02*
X0104735Y0273132D01*
X0094735Y0273132D02*
X0094735Y0266532D01*
X0084735Y0266532D02*
X0084735Y0273132D01*
D16*
X0088235Y0328832D02*
X0088237Y0328993D01*
X0088243Y0329153D01*
X0088253Y0329314D01*
X0088267Y0329474D01*
X0088285Y0329634D01*
X0088306Y0329793D01*
X0088332Y0329952D01*
X0088362Y0330110D01*
X0088395Y0330267D01*
X0088433Y0330424D01*
X0088474Y0330579D01*
X0088519Y0330733D01*
X0088568Y0330886D01*
X0088621Y0331038D01*
X0088677Y0331189D01*
X0088738Y0331338D01*
X0088801Y0331486D01*
X0088869Y0331632D01*
X0088940Y0331776D01*
X0089014Y0331918D01*
X0089092Y0332059D01*
X0089174Y0332197D01*
X0089259Y0332334D01*
X0089347Y0332468D01*
X0089439Y0332600D01*
X0089534Y0332730D01*
X0089632Y0332858D01*
X0089733Y0332983D01*
X0089837Y0333105D01*
X0089944Y0333225D01*
X0090054Y0333342D01*
X0090167Y0333457D01*
X0090283Y0333568D01*
X0090402Y0333677D01*
X0090523Y0333782D01*
X0090647Y0333885D01*
X0090773Y0333985D01*
X0090901Y0334081D01*
X0091032Y0334174D01*
X0091166Y0334264D01*
X0091301Y0334351D01*
X0091439Y0334434D01*
X0091578Y0334514D01*
X0091720Y0334590D01*
X0091863Y0334663D01*
X0092008Y0334732D01*
X0092155Y0334798D01*
X0092303Y0334860D01*
X0092453Y0334918D01*
X0092604Y0334973D01*
X0092757Y0335024D01*
X0092911Y0335071D01*
X0093066Y0335114D01*
X0093222Y0335153D01*
X0093378Y0335189D01*
X0093536Y0335220D01*
X0093694Y0335248D01*
X0093853Y0335272D01*
X0094013Y0335292D01*
X0094173Y0335308D01*
X0094333Y0335320D01*
X0094494Y0335328D01*
X0094655Y0335332D01*
X0094815Y0335332D01*
X0094976Y0335328D01*
X0095137Y0335320D01*
X0095297Y0335308D01*
X0095457Y0335292D01*
X0095617Y0335272D01*
X0095776Y0335248D01*
X0095934Y0335220D01*
X0096092Y0335189D01*
X0096248Y0335153D01*
X0096404Y0335114D01*
X0096559Y0335071D01*
X0096713Y0335024D01*
X0096866Y0334973D01*
X0097017Y0334918D01*
X0097167Y0334860D01*
X0097315Y0334798D01*
X0097462Y0334732D01*
X0097607Y0334663D01*
X0097750Y0334590D01*
X0097892Y0334514D01*
X0098031Y0334434D01*
X0098169Y0334351D01*
X0098304Y0334264D01*
X0098438Y0334174D01*
X0098569Y0334081D01*
X0098697Y0333985D01*
X0098823Y0333885D01*
X0098947Y0333782D01*
X0099068Y0333677D01*
X0099187Y0333568D01*
X0099303Y0333457D01*
X0099416Y0333342D01*
X0099526Y0333225D01*
X0099633Y0333105D01*
X0099737Y0332983D01*
X0099838Y0332858D01*
X0099936Y0332730D01*
X0100031Y0332600D01*
X0100123Y0332468D01*
X0100211Y0332334D01*
X0100296Y0332197D01*
X0100378Y0332059D01*
X0100456Y0331918D01*
X0100530Y0331776D01*
X0100601Y0331632D01*
X0100669Y0331486D01*
X0100732Y0331338D01*
X0100793Y0331189D01*
X0100849Y0331038D01*
X0100902Y0330886D01*
X0100951Y0330733D01*
X0100996Y0330579D01*
X0101037Y0330424D01*
X0101075Y0330267D01*
X0101108Y0330110D01*
X0101138Y0329952D01*
X0101164Y0329793D01*
X0101185Y0329634D01*
X0101203Y0329474D01*
X0101217Y0329314D01*
X0101227Y0329153D01*
X0101233Y0328993D01*
X0101235Y0328832D01*
X0101233Y0328671D01*
X0101227Y0328511D01*
X0101217Y0328350D01*
X0101203Y0328190D01*
X0101185Y0328030D01*
X0101164Y0327871D01*
X0101138Y0327712D01*
X0101108Y0327554D01*
X0101075Y0327397D01*
X0101037Y0327240D01*
X0100996Y0327085D01*
X0100951Y0326931D01*
X0100902Y0326778D01*
X0100849Y0326626D01*
X0100793Y0326475D01*
X0100732Y0326326D01*
X0100669Y0326178D01*
X0100601Y0326032D01*
X0100530Y0325888D01*
X0100456Y0325746D01*
X0100378Y0325605D01*
X0100296Y0325467D01*
X0100211Y0325330D01*
X0100123Y0325196D01*
X0100031Y0325064D01*
X0099936Y0324934D01*
X0099838Y0324806D01*
X0099737Y0324681D01*
X0099633Y0324559D01*
X0099526Y0324439D01*
X0099416Y0324322D01*
X0099303Y0324207D01*
X0099187Y0324096D01*
X0099068Y0323987D01*
X0098947Y0323882D01*
X0098823Y0323779D01*
X0098697Y0323679D01*
X0098569Y0323583D01*
X0098438Y0323490D01*
X0098304Y0323400D01*
X0098169Y0323313D01*
X0098031Y0323230D01*
X0097892Y0323150D01*
X0097750Y0323074D01*
X0097607Y0323001D01*
X0097462Y0322932D01*
X0097315Y0322866D01*
X0097167Y0322804D01*
X0097017Y0322746D01*
X0096866Y0322691D01*
X0096713Y0322640D01*
X0096559Y0322593D01*
X0096404Y0322550D01*
X0096248Y0322511D01*
X0096092Y0322475D01*
X0095934Y0322444D01*
X0095776Y0322416D01*
X0095617Y0322392D01*
X0095457Y0322372D01*
X0095297Y0322356D01*
X0095137Y0322344D01*
X0094976Y0322336D01*
X0094815Y0322332D01*
X0094655Y0322332D01*
X0094494Y0322336D01*
X0094333Y0322344D01*
X0094173Y0322356D01*
X0094013Y0322372D01*
X0093853Y0322392D01*
X0093694Y0322416D01*
X0093536Y0322444D01*
X0093378Y0322475D01*
X0093222Y0322511D01*
X0093066Y0322550D01*
X0092911Y0322593D01*
X0092757Y0322640D01*
X0092604Y0322691D01*
X0092453Y0322746D01*
X0092303Y0322804D01*
X0092155Y0322866D01*
X0092008Y0322932D01*
X0091863Y0323001D01*
X0091720Y0323074D01*
X0091578Y0323150D01*
X0091439Y0323230D01*
X0091301Y0323313D01*
X0091166Y0323400D01*
X0091032Y0323490D01*
X0090901Y0323583D01*
X0090773Y0323679D01*
X0090647Y0323779D01*
X0090523Y0323882D01*
X0090402Y0323987D01*
X0090283Y0324096D01*
X0090167Y0324207D01*
X0090054Y0324322D01*
X0089944Y0324439D01*
X0089837Y0324559D01*
X0089733Y0324681D01*
X0089632Y0324806D01*
X0089534Y0324934D01*
X0089439Y0325064D01*
X0089347Y0325196D01*
X0089259Y0325330D01*
X0089174Y0325467D01*
X0089092Y0325605D01*
X0089014Y0325746D01*
X0088940Y0325888D01*
X0088869Y0326032D01*
X0088801Y0326178D01*
X0088738Y0326326D01*
X0088677Y0326475D01*
X0088621Y0326626D01*
X0088568Y0326778D01*
X0088519Y0326931D01*
X0088474Y0327085D01*
X0088433Y0327240D01*
X0088395Y0327397D01*
X0088362Y0327554D01*
X0088332Y0327712D01*
X0088306Y0327871D01*
X0088285Y0328030D01*
X0088267Y0328190D01*
X0088253Y0328350D01*
X0088243Y0328511D01*
X0088237Y0328671D01*
X0088235Y0328832D01*
M02*
