G75*
%MOIN*%
%OFA0B0*%
%FSLAX25Y25*%
%IPPOS*%
%LPD*%
%AMOC8*
5,1,8,0,0,1.08239X$1,22.5*
%
%ADD10C,0.06800*%
%ADD11OC8,0.08400*%
%ADD12C,0.08400*%
%ADD13OC8,0.07800*%
%ADD14OC8,0.10800*%
%ADD15C,0.07400*%
%ADD16C,0.13800*%
D10*
X0054735Y0011832D02*
X0054735Y0017832D01*
X0064735Y0017832D02*
X0064735Y0011832D01*
X0074735Y0011832D02*
X0074735Y0017832D01*
X0084735Y0017832D02*
X0084735Y0011832D01*
X0094735Y0011832D02*
X0094735Y0017832D01*
X0104735Y0017832D02*
X0104735Y0011832D01*
X0114735Y0011832D02*
X0114735Y0017832D01*
X0144735Y0025582D02*
X0144735Y0031582D01*
X0154735Y0031582D02*
X0154735Y0025582D01*
X0164735Y0025582D02*
X0164735Y0031582D01*
X0164735Y0045582D02*
X0164735Y0051582D01*
X0154735Y0051582D02*
X0154735Y0045582D01*
X0144735Y0045582D02*
X0144735Y0051582D01*
X0144735Y0065582D02*
X0144735Y0071582D01*
X0154735Y0071582D02*
X0154735Y0065582D01*
X0164735Y0065582D02*
X0164735Y0071582D01*
X0206735Y0144832D02*
X0212735Y0144832D01*
X0212735Y0154832D02*
X0206735Y0154832D01*
X0206735Y0164832D02*
X0212735Y0164832D01*
X0212735Y0174832D02*
X0206735Y0174832D01*
X0206735Y0184832D02*
X0212735Y0184832D01*
X0212735Y0194832D02*
X0206735Y0194832D01*
X0206735Y0204832D02*
X0212735Y0204832D01*
X0212735Y0214832D02*
X0206735Y0214832D01*
X0206735Y0224832D02*
X0212735Y0224832D01*
X0212735Y0234832D02*
X0206735Y0234832D01*
X0206735Y0244832D02*
X0212735Y0244832D01*
X0212735Y0254832D02*
X0206735Y0254832D01*
X0206735Y0264832D02*
X0212735Y0264832D01*
X0212735Y0274832D02*
X0206735Y0274832D01*
X0206735Y0284832D02*
X0212735Y0284832D01*
X0266735Y0284832D02*
X0272735Y0284832D01*
X0272735Y0274832D02*
X0266735Y0274832D01*
X0266735Y0264832D02*
X0272735Y0264832D01*
X0272735Y0254832D02*
X0266735Y0254832D01*
X0266735Y0244832D02*
X0272735Y0244832D01*
X0272735Y0234832D02*
X0266735Y0234832D01*
X0266735Y0224832D02*
X0272735Y0224832D01*
X0272735Y0214832D02*
X0266735Y0214832D01*
X0266735Y0204832D02*
X0272735Y0204832D01*
X0272735Y0194832D02*
X0266735Y0194832D01*
X0266735Y0184832D02*
X0272735Y0184832D01*
X0272735Y0174832D02*
X0266735Y0174832D01*
X0266735Y0164832D02*
X0272735Y0164832D01*
X0272735Y0154832D02*
X0266735Y0154832D01*
X0266735Y0144832D02*
X0272735Y0144832D01*
X0331735Y0144832D02*
X0337735Y0144832D01*
X0337735Y0134832D02*
X0331735Y0134832D01*
X0331735Y0124832D02*
X0337735Y0124832D01*
X0337735Y0114832D02*
X0331735Y0114832D01*
X0331735Y0104832D02*
X0337735Y0104832D01*
X0337735Y0094832D02*
X0331735Y0094832D01*
X0381735Y0094832D02*
X0387735Y0094832D01*
X0387735Y0104832D02*
X0381735Y0104832D01*
X0381735Y0114832D02*
X0387735Y0114832D01*
X0387735Y0124832D02*
X0381735Y0124832D01*
X0381735Y0134832D02*
X0387735Y0134832D01*
X0387735Y0144832D02*
X0381735Y0144832D01*
X0381735Y0154832D02*
X0387735Y0154832D01*
X0387735Y0164832D02*
X0381735Y0164832D01*
X0337735Y0164832D02*
X0331735Y0164832D01*
X0331735Y0154832D02*
X0337735Y0154832D01*
X0426735Y0144832D02*
X0432735Y0144832D01*
X0432735Y0134832D02*
X0426735Y0134832D01*
X0426735Y0124832D02*
X0432735Y0124832D01*
X0432735Y0114832D02*
X0426735Y0114832D01*
X0387735Y0229832D02*
X0381735Y0229832D01*
X0381735Y0239832D02*
X0387735Y0239832D01*
X0387735Y0249832D02*
X0381735Y0249832D01*
X0381735Y0259832D02*
X0387735Y0259832D01*
X0387735Y0269832D02*
X0381735Y0269832D01*
X0381735Y0279832D02*
X0387735Y0279832D01*
X0387735Y0289832D02*
X0381735Y0289832D01*
X0381735Y0299832D02*
X0387735Y0299832D01*
X0426735Y0279832D02*
X0432735Y0279832D01*
X0432735Y0269832D02*
X0426735Y0269832D01*
X0426735Y0259832D02*
X0432735Y0259832D01*
X0432735Y0249832D02*
X0426735Y0249832D01*
X0337735Y0249832D02*
X0331735Y0249832D01*
X0331735Y0239832D02*
X0337735Y0239832D01*
X0337735Y0229832D02*
X0331735Y0229832D01*
X0331735Y0259832D02*
X0337735Y0259832D01*
X0337735Y0269832D02*
X0331735Y0269832D01*
X0331735Y0279832D02*
X0337735Y0279832D01*
X0337735Y0289832D02*
X0331735Y0289832D01*
X0331735Y0299832D02*
X0337735Y0299832D01*
X0114735Y0167832D02*
X0114735Y0161832D01*
X0104735Y0161832D02*
X0104735Y0167832D01*
X0094735Y0167832D02*
X0094735Y0161832D01*
X0084735Y0161832D02*
X0084735Y0167832D01*
X0074735Y0167832D02*
X0074735Y0161832D01*
X0064735Y0161832D02*
X0064735Y0167832D01*
X0054735Y0167832D02*
X0054735Y0161832D01*
X0054235Y0142332D02*
X0060235Y0142332D01*
X0060235Y0132332D02*
X0054235Y0132332D01*
X0051735Y0209832D02*
X0057735Y0209832D01*
X0057735Y0219832D02*
X0051735Y0219832D01*
X0051735Y0229832D02*
X0057735Y0229832D01*
X0057735Y0239832D02*
X0051735Y0239832D01*
D11*
X0040985Y0276082D03*
X0040985Y0289832D03*
X0150985Y0318582D03*
X0189735Y0327332D03*
X0228485Y0331082D03*
X0259735Y0331082D03*
X0414735Y0304832D03*
X0459735Y0194832D03*
X0459735Y0181082D03*
X0420985Y0183582D03*
X0424735Y0077332D03*
X0424735Y0067332D03*
X0410985Y0067332D03*
X0410985Y0077332D03*
X0144735Y0134832D03*
D12*
X0154735Y0134832D03*
X0189735Y0317332D03*
X0228485Y0321082D03*
X0259735Y0321082D03*
X0150985Y0328582D03*
X0414735Y0314832D03*
X0420985Y0193582D03*
D13*
X0312235Y0208582D03*
X0307235Y0223582D03*
X0307235Y0263582D03*
X0299735Y0274832D03*
X0299735Y0314832D03*
X0159735Y0239832D03*
X0119735Y0239832D03*
X0109735Y0203582D03*
X0069735Y0203582D03*
X0209735Y0102332D03*
X0248485Y0101082D03*
X0280985Y0102332D03*
X0304735Y0096082D03*
X0280985Y0062332D03*
X0248485Y0061082D03*
X0255985Y0038582D03*
X0255985Y0028582D03*
X0215985Y0028582D03*
X0215985Y0038582D03*
X0209735Y0062332D03*
X0304735Y0136082D03*
X0312235Y0168582D03*
D14*
X0334735Y0053832D03*
X0334735Y0035832D03*
D15*
X0104735Y0266532D02*
X0104735Y0273132D01*
X0094735Y0273132D02*
X0094735Y0266532D01*
X0084735Y0266532D02*
X0084735Y0273132D01*
D16*
X0094735Y0328832D03*
M02*
