G75*
%MOIN*%
%OFA0B0*%
%FSLAX25Y25*%
%IPPOS*%
%LPD*%
%AMOC8*
5,1,8,0,0,1.08239X$1,22.5*
%
%ADD10C,0.06800*%
%ADD11OC8,0.07100*%
%ADD12C,0.07100*%
%ADD13OC8,0.06000*%
%ADD14OC8,0.08300*%
%ADD15R,0.06737X0.06737*%
%ADD16C,0.06737*%
%ADD17C,0.07400*%
%ADD18C,0.13800*%
D10*
X0137250Y0025500D02*
X0137250Y0031500D01*
X0147250Y0031500D02*
X0147250Y0025500D01*
X0157250Y0025500D02*
X0157250Y0031500D01*
X0157250Y0045500D02*
X0157250Y0051500D01*
X0147250Y0051500D02*
X0147250Y0045500D01*
X0137250Y0045500D02*
X0137250Y0051500D01*
X0137250Y0065500D02*
X0137250Y0071500D01*
X0147250Y0071500D02*
X0147250Y0065500D01*
X0157250Y0065500D02*
X0157250Y0071500D01*
X0179250Y0143500D02*
X0185250Y0143500D01*
X0185250Y0153500D02*
X0179250Y0153500D01*
X0179250Y0163500D02*
X0185250Y0163500D01*
X0185250Y0173500D02*
X0179250Y0173500D01*
X0179250Y0183500D02*
X0185250Y0183500D01*
X0185250Y0193500D02*
X0179250Y0193500D01*
X0179250Y0203500D02*
X0185250Y0203500D01*
X0185250Y0213500D02*
X0179250Y0213500D01*
X0179250Y0223500D02*
X0185250Y0223500D01*
X0185250Y0233500D02*
X0179250Y0233500D01*
X0179250Y0243500D02*
X0185250Y0243500D01*
X0185250Y0253500D02*
X0179250Y0253500D01*
X0179250Y0263500D02*
X0185250Y0263500D01*
X0185250Y0273500D02*
X0179250Y0273500D01*
X0179250Y0283500D02*
X0185250Y0283500D01*
X0239250Y0283500D02*
X0245250Y0283500D01*
X0245250Y0273500D02*
X0239250Y0273500D01*
X0239250Y0263500D02*
X0245250Y0263500D01*
X0245250Y0253500D02*
X0239250Y0253500D01*
X0239250Y0243500D02*
X0245250Y0243500D01*
X0245250Y0233500D02*
X0239250Y0233500D01*
X0239250Y0223500D02*
X0245250Y0223500D01*
X0245250Y0213500D02*
X0239250Y0213500D01*
X0239250Y0203500D02*
X0245250Y0203500D01*
X0245250Y0193500D02*
X0239250Y0193500D01*
X0239250Y0183500D02*
X0245250Y0183500D01*
X0245250Y0173500D02*
X0239250Y0173500D01*
X0239250Y0163500D02*
X0245250Y0163500D01*
X0245250Y0153500D02*
X0239250Y0153500D01*
X0239250Y0143500D02*
X0245250Y0143500D01*
X0304250Y0143500D02*
X0310250Y0143500D01*
X0310250Y0133500D02*
X0304250Y0133500D01*
X0304250Y0123500D02*
X0310250Y0123500D01*
X0310250Y0113500D02*
X0304250Y0113500D01*
X0304250Y0103500D02*
X0310250Y0103500D01*
X0310250Y0093500D02*
X0304250Y0093500D01*
X0354250Y0093500D02*
X0360250Y0093500D01*
X0360250Y0103500D02*
X0354250Y0103500D01*
X0354250Y0113500D02*
X0360250Y0113500D01*
X0360250Y0123500D02*
X0354250Y0123500D01*
X0354250Y0133500D02*
X0360250Y0133500D01*
X0360250Y0143500D02*
X0354250Y0143500D01*
X0354250Y0153500D02*
X0360250Y0153500D01*
X0360250Y0163500D02*
X0354250Y0163500D01*
X0310250Y0163500D02*
X0304250Y0163500D01*
X0304250Y0153500D02*
X0310250Y0153500D01*
X0399250Y0143500D02*
X0405250Y0143500D01*
X0405250Y0133500D02*
X0399250Y0133500D01*
X0399250Y0123500D02*
X0405250Y0123500D01*
X0405250Y0113500D02*
X0399250Y0113500D01*
X0397250Y0081500D02*
X0397250Y0075500D01*
X0387250Y0075500D02*
X0387250Y0081500D01*
X0387250Y0066500D02*
X0387250Y0060500D01*
X0397250Y0060500D02*
X0397250Y0066500D01*
X0429250Y0183500D02*
X0435250Y0183500D01*
X0435250Y0193500D02*
X0429250Y0193500D01*
X0360250Y0228500D02*
X0354250Y0228500D01*
X0354250Y0238500D02*
X0360250Y0238500D01*
X0360250Y0248500D02*
X0354250Y0248500D01*
X0354250Y0258500D02*
X0360250Y0258500D01*
X0360250Y0268500D02*
X0354250Y0268500D01*
X0354250Y0278500D02*
X0360250Y0278500D01*
X0360250Y0288500D02*
X0354250Y0288500D01*
X0354250Y0298500D02*
X0360250Y0298500D01*
X0399250Y0278500D02*
X0405250Y0278500D01*
X0405250Y0268500D02*
X0399250Y0268500D01*
X0399250Y0258500D02*
X0405250Y0258500D01*
X0405250Y0248500D02*
X0399250Y0248500D01*
X0310250Y0248500D02*
X0304250Y0248500D01*
X0304250Y0258500D02*
X0310250Y0258500D01*
X0310250Y0268500D02*
X0304250Y0268500D01*
X0304250Y0278500D02*
X0310250Y0278500D01*
X0310250Y0288500D02*
X0304250Y0288500D01*
X0304250Y0298500D02*
X0310250Y0298500D01*
X0310250Y0238500D02*
X0304250Y0238500D01*
X0304250Y0228500D02*
X0310250Y0228500D01*
X0030250Y0228500D02*
X0024250Y0228500D01*
X0024250Y0218500D02*
X0030250Y0218500D01*
X0030250Y0208500D02*
X0024250Y0208500D01*
X0024250Y0238500D02*
X0030250Y0238500D01*
D11*
X0127250Y0323500D03*
X0162250Y0318500D03*
X0207250Y0323500D03*
X0237250Y0323500D03*
X0387250Y0303500D03*
X0387250Y0193500D03*
X0133500Y0136000D03*
D12*
X0133500Y0146000D03*
X0117250Y0323500D03*
X0162250Y0328500D03*
X0197250Y0323500D03*
X0247250Y0323500D03*
X0387250Y0313500D03*
X0377250Y0193500D03*
D13*
X0272250Y0208500D03*
X0267250Y0178500D03*
X0267250Y0138500D03*
X0267250Y0113500D03*
X0242250Y0113500D03*
X0217250Y0113500D03*
X0192250Y0113500D03*
X0192250Y0073500D03*
X0217250Y0073500D03*
X0242250Y0073500D03*
X0267250Y0073500D03*
X0262250Y0033500D03*
X0272250Y0033500D03*
X0227250Y0033500D03*
X0217250Y0033500D03*
X0084750Y0203500D03*
X0092250Y0233500D03*
X0132250Y0233500D03*
X0044750Y0203500D03*
X0272250Y0248500D03*
X0272250Y0273500D03*
X0272250Y0313500D03*
D14*
X0307250Y0052500D03*
X0307250Y0034500D03*
D15*
X0087250Y0028500D03*
X0037250Y0058500D03*
X0029750Y0156000D03*
X0087250Y0178500D03*
D16*
X0027250Y0028500D03*
X0037250Y0028500D03*
X0047250Y0028500D03*
X0057250Y0028500D03*
X0067250Y0028500D03*
X0077250Y0028500D03*
X0077250Y0058500D03*
X0067250Y0058500D03*
X0057250Y0058500D03*
X0047250Y0058500D03*
X0029750Y0126000D03*
X0029750Y0136000D03*
X0029750Y0146000D03*
X0027250Y0178500D03*
X0037250Y0178500D03*
X0047250Y0178500D03*
X0057250Y0178500D03*
X0067250Y0178500D03*
X0077250Y0178500D03*
D17*
X0077250Y0265200D02*
X0077250Y0271800D01*
X0067250Y0271800D02*
X0067250Y0265200D01*
X0057250Y0265200D02*
X0057250Y0271800D01*
D18*
X0067250Y0327500D03*
M02*
