G75*
%MOIN*%
%OFA0B0*%
%FSLAX25Y25*%
%IPPOS*%
%LPD*%
%AMOC8*
5,1,8,0,0,1.08239X$1,22.5*
%
%ADD10C,0.06600*%
%ADD11C,0.06000*%
%ADD12OC8,0.06300*%
%ADD13C,0.06300*%
%ADD14OC8,0.05200*%
%ADD15OC8,0.07500*%
%ADD16R,0.05937X0.05937*%
%ADD17C,0.05937*%
%ADD18C,0.03200*%
D10*
X0057250Y0265200D02*
X0057250Y0271800D01*
X0067250Y0271800D02*
X0067250Y0265200D01*
X0077250Y0265200D02*
X0077250Y0271800D01*
X0014476Y0324750D02*
X0014479Y0325033D01*
X0014490Y0325315D01*
X0014507Y0325598D01*
X0014531Y0325880D01*
X0014563Y0326161D01*
X0014601Y0326441D01*
X0014646Y0326720D01*
X0014697Y0326998D01*
X0014756Y0327275D01*
X0014821Y0327550D01*
X0014893Y0327824D01*
X0014972Y0328095D01*
X0015058Y0328365D01*
X0015150Y0328632D01*
X0015248Y0328897D01*
X0015353Y0329160D01*
X0015465Y0329420D01*
X0015582Y0329677D01*
X0015706Y0329931D01*
X0015837Y0330182D01*
X0015973Y0330430D01*
X0016116Y0330675D01*
X0016264Y0330915D01*
X0016418Y0331152D01*
X0016578Y0331386D01*
X0016744Y0331615D01*
X0016915Y0331840D01*
X0017092Y0332061D01*
X0017274Y0332277D01*
X0017461Y0332489D01*
X0017654Y0332696D01*
X0017851Y0332899D01*
X0018054Y0333096D01*
X0018261Y0333289D01*
X0018473Y0333476D01*
X0018689Y0333658D01*
X0018910Y0333835D01*
X0019135Y0334006D01*
X0019364Y0334172D01*
X0019598Y0334332D01*
X0019835Y0334486D01*
X0020075Y0334634D01*
X0020320Y0334777D01*
X0020568Y0334913D01*
X0020819Y0335044D01*
X0021073Y0335168D01*
X0021330Y0335285D01*
X0021590Y0335397D01*
X0021853Y0335502D01*
X0022118Y0335600D01*
X0022385Y0335692D01*
X0022655Y0335778D01*
X0022926Y0335857D01*
X0023200Y0335929D01*
X0023475Y0335994D01*
X0023752Y0336053D01*
X0024030Y0336104D01*
X0024309Y0336149D01*
X0024589Y0336187D01*
X0024870Y0336219D01*
X0025152Y0336243D01*
X0025435Y0336260D01*
X0025717Y0336271D01*
X0026000Y0336274D01*
X0026283Y0336271D01*
X0026565Y0336260D01*
X0026848Y0336243D01*
X0027130Y0336219D01*
X0027411Y0336187D01*
X0027691Y0336149D01*
X0027970Y0336104D01*
X0028248Y0336053D01*
X0028525Y0335994D01*
X0028800Y0335929D01*
X0029074Y0335857D01*
X0029345Y0335778D01*
X0029615Y0335692D01*
X0029882Y0335600D01*
X0030147Y0335502D01*
X0030410Y0335397D01*
X0030670Y0335285D01*
X0030927Y0335168D01*
X0031181Y0335044D01*
X0031432Y0334913D01*
X0031680Y0334777D01*
X0031925Y0334634D01*
X0032165Y0334486D01*
X0032402Y0334332D01*
X0032636Y0334172D01*
X0032865Y0334006D01*
X0033090Y0333835D01*
X0033311Y0333658D01*
X0033527Y0333476D01*
X0033739Y0333289D01*
X0033946Y0333096D01*
X0034149Y0332899D01*
X0034346Y0332696D01*
X0034539Y0332489D01*
X0034726Y0332277D01*
X0034908Y0332061D01*
X0035085Y0331840D01*
X0035256Y0331615D01*
X0035422Y0331386D01*
X0035582Y0331152D01*
X0035736Y0330915D01*
X0035884Y0330675D01*
X0036027Y0330430D01*
X0036163Y0330182D01*
X0036294Y0329931D01*
X0036418Y0329677D01*
X0036535Y0329420D01*
X0036647Y0329160D01*
X0036752Y0328897D01*
X0036850Y0328632D01*
X0036942Y0328365D01*
X0037028Y0328095D01*
X0037107Y0327824D01*
X0037179Y0327550D01*
X0037244Y0327275D01*
X0037303Y0326998D01*
X0037354Y0326720D01*
X0037399Y0326441D01*
X0037437Y0326161D01*
X0037469Y0325880D01*
X0037493Y0325598D01*
X0037510Y0325315D01*
X0037521Y0325033D01*
X0037524Y0324750D01*
X0037521Y0324467D01*
X0037510Y0324185D01*
X0037493Y0323902D01*
X0037469Y0323620D01*
X0037437Y0323339D01*
X0037399Y0323059D01*
X0037354Y0322780D01*
X0037303Y0322502D01*
X0037244Y0322225D01*
X0037179Y0321950D01*
X0037107Y0321676D01*
X0037028Y0321405D01*
X0036942Y0321135D01*
X0036850Y0320868D01*
X0036752Y0320603D01*
X0036647Y0320340D01*
X0036535Y0320080D01*
X0036418Y0319823D01*
X0036294Y0319569D01*
X0036163Y0319318D01*
X0036027Y0319070D01*
X0035884Y0318825D01*
X0035736Y0318585D01*
X0035582Y0318348D01*
X0035422Y0318114D01*
X0035256Y0317885D01*
X0035085Y0317660D01*
X0034908Y0317439D01*
X0034726Y0317223D01*
X0034539Y0317011D01*
X0034346Y0316804D01*
X0034149Y0316601D01*
X0033946Y0316404D01*
X0033739Y0316211D01*
X0033527Y0316024D01*
X0033311Y0315842D01*
X0033090Y0315665D01*
X0032865Y0315494D01*
X0032636Y0315328D01*
X0032402Y0315168D01*
X0032165Y0315014D01*
X0031925Y0314866D01*
X0031680Y0314723D01*
X0031432Y0314587D01*
X0031181Y0314456D01*
X0030927Y0314332D01*
X0030670Y0314215D01*
X0030410Y0314103D01*
X0030147Y0313998D01*
X0029882Y0313900D01*
X0029615Y0313808D01*
X0029345Y0313722D01*
X0029074Y0313643D01*
X0028800Y0313571D01*
X0028525Y0313506D01*
X0028248Y0313447D01*
X0027970Y0313396D01*
X0027691Y0313351D01*
X0027411Y0313313D01*
X0027130Y0313281D01*
X0026848Y0313257D01*
X0026565Y0313240D01*
X0026283Y0313229D01*
X0026000Y0313226D01*
X0025717Y0313229D01*
X0025435Y0313240D01*
X0025152Y0313257D01*
X0024870Y0313281D01*
X0024589Y0313313D01*
X0024309Y0313351D01*
X0024030Y0313396D01*
X0023752Y0313447D01*
X0023475Y0313506D01*
X0023200Y0313571D01*
X0022926Y0313643D01*
X0022655Y0313722D01*
X0022385Y0313808D01*
X0022118Y0313900D01*
X0021853Y0313998D01*
X0021590Y0314103D01*
X0021330Y0314215D01*
X0021073Y0314332D01*
X0020819Y0314456D01*
X0020568Y0314587D01*
X0020320Y0314723D01*
X0020075Y0314866D01*
X0019835Y0315014D01*
X0019598Y0315168D01*
X0019364Y0315328D01*
X0019135Y0315494D01*
X0018910Y0315665D01*
X0018689Y0315842D01*
X0018473Y0316024D01*
X0018261Y0316211D01*
X0018054Y0316404D01*
X0017851Y0316601D01*
X0017654Y0316804D01*
X0017461Y0317011D01*
X0017274Y0317223D01*
X0017092Y0317439D01*
X0016915Y0317660D01*
X0016744Y0317885D01*
X0016578Y0318114D01*
X0016418Y0318348D01*
X0016264Y0318585D01*
X0016116Y0318825D01*
X0015973Y0319070D01*
X0015837Y0319318D01*
X0015706Y0319569D01*
X0015582Y0319823D01*
X0015465Y0320080D01*
X0015353Y0320340D01*
X0015248Y0320603D01*
X0015150Y0320868D01*
X0015058Y0321135D01*
X0014972Y0321405D01*
X0014893Y0321676D01*
X0014821Y0321950D01*
X0014756Y0322225D01*
X0014697Y0322502D01*
X0014646Y0322780D01*
X0014601Y0323059D01*
X0014563Y0323339D01*
X0014531Y0323620D01*
X0014507Y0323902D01*
X0014490Y0324185D01*
X0014479Y0324467D01*
X0014476Y0324750D01*
X0409476Y0029750D02*
X0409479Y0030033D01*
X0409490Y0030315D01*
X0409507Y0030598D01*
X0409531Y0030880D01*
X0409563Y0031161D01*
X0409601Y0031441D01*
X0409646Y0031720D01*
X0409697Y0031998D01*
X0409756Y0032275D01*
X0409821Y0032550D01*
X0409893Y0032824D01*
X0409972Y0033095D01*
X0410058Y0033365D01*
X0410150Y0033632D01*
X0410248Y0033897D01*
X0410353Y0034160D01*
X0410465Y0034420D01*
X0410582Y0034677D01*
X0410706Y0034931D01*
X0410837Y0035182D01*
X0410973Y0035430D01*
X0411116Y0035675D01*
X0411264Y0035915D01*
X0411418Y0036152D01*
X0411578Y0036386D01*
X0411744Y0036615D01*
X0411915Y0036840D01*
X0412092Y0037061D01*
X0412274Y0037277D01*
X0412461Y0037489D01*
X0412654Y0037696D01*
X0412851Y0037899D01*
X0413054Y0038096D01*
X0413261Y0038289D01*
X0413473Y0038476D01*
X0413689Y0038658D01*
X0413910Y0038835D01*
X0414135Y0039006D01*
X0414364Y0039172D01*
X0414598Y0039332D01*
X0414835Y0039486D01*
X0415075Y0039634D01*
X0415320Y0039777D01*
X0415568Y0039913D01*
X0415819Y0040044D01*
X0416073Y0040168D01*
X0416330Y0040285D01*
X0416590Y0040397D01*
X0416853Y0040502D01*
X0417118Y0040600D01*
X0417385Y0040692D01*
X0417655Y0040778D01*
X0417926Y0040857D01*
X0418200Y0040929D01*
X0418475Y0040994D01*
X0418752Y0041053D01*
X0419030Y0041104D01*
X0419309Y0041149D01*
X0419589Y0041187D01*
X0419870Y0041219D01*
X0420152Y0041243D01*
X0420435Y0041260D01*
X0420717Y0041271D01*
X0421000Y0041274D01*
X0421283Y0041271D01*
X0421565Y0041260D01*
X0421848Y0041243D01*
X0422130Y0041219D01*
X0422411Y0041187D01*
X0422691Y0041149D01*
X0422970Y0041104D01*
X0423248Y0041053D01*
X0423525Y0040994D01*
X0423800Y0040929D01*
X0424074Y0040857D01*
X0424345Y0040778D01*
X0424615Y0040692D01*
X0424882Y0040600D01*
X0425147Y0040502D01*
X0425410Y0040397D01*
X0425670Y0040285D01*
X0425927Y0040168D01*
X0426181Y0040044D01*
X0426432Y0039913D01*
X0426680Y0039777D01*
X0426925Y0039634D01*
X0427165Y0039486D01*
X0427402Y0039332D01*
X0427636Y0039172D01*
X0427865Y0039006D01*
X0428090Y0038835D01*
X0428311Y0038658D01*
X0428527Y0038476D01*
X0428739Y0038289D01*
X0428946Y0038096D01*
X0429149Y0037899D01*
X0429346Y0037696D01*
X0429539Y0037489D01*
X0429726Y0037277D01*
X0429908Y0037061D01*
X0430085Y0036840D01*
X0430256Y0036615D01*
X0430422Y0036386D01*
X0430582Y0036152D01*
X0430736Y0035915D01*
X0430884Y0035675D01*
X0431027Y0035430D01*
X0431163Y0035182D01*
X0431294Y0034931D01*
X0431418Y0034677D01*
X0431535Y0034420D01*
X0431647Y0034160D01*
X0431752Y0033897D01*
X0431850Y0033632D01*
X0431942Y0033365D01*
X0432028Y0033095D01*
X0432107Y0032824D01*
X0432179Y0032550D01*
X0432244Y0032275D01*
X0432303Y0031998D01*
X0432354Y0031720D01*
X0432399Y0031441D01*
X0432437Y0031161D01*
X0432469Y0030880D01*
X0432493Y0030598D01*
X0432510Y0030315D01*
X0432521Y0030033D01*
X0432524Y0029750D01*
X0432521Y0029467D01*
X0432510Y0029185D01*
X0432493Y0028902D01*
X0432469Y0028620D01*
X0432437Y0028339D01*
X0432399Y0028059D01*
X0432354Y0027780D01*
X0432303Y0027502D01*
X0432244Y0027225D01*
X0432179Y0026950D01*
X0432107Y0026676D01*
X0432028Y0026405D01*
X0431942Y0026135D01*
X0431850Y0025868D01*
X0431752Y0025603D01*
X0431647Y0025340D01*
X0431535Y0025080D01*
X0431418Y0024823D01*
X0431294Y0024569D01*
X0431163Y0024318D01*
X0431027Y0024070D01*
X0430884Y0023825D01*
X0430736Y0023585D01*
X0430582Y0023348D01*
X0430422Y0023114D01*
X0430256Y0022885D01*
X0430085Y0022660D01*
X0429908Y0022439D01*
X0429726Y0022223D01*
X0429539Y0022011D01*
X0429346Y0021804D01*
X0429149Y0021601D01*
X0428946Y0021404D01*
X0428739Y0021211D01*
X0428527Y0021024D01*
X0428311Y0020842D01*
X0428090Y0020665D01*
X0427865Y0020494D01*
X0427636Y0020328D01*
X0427402Y0020168D01*
X0427165Y0020014D01*
X0426925Y0019866D01*
X0426680Y0019723D01*
X0426432Y0019587D01*
X0426181Y0019456D01*
X0425927Y0019332D01*
X0425670Y0019215D01*
X0425410Y0019103D01*
X0425147Y0018998D01*
X0424882Y0018900D01*
X0424615Y0018808D01*
X0424345Y0018722D01*
X0424074Y0018643D01*
X0423800Y0018571D01*
X0423525Y0018506D01*
X0423248Y0018447D01*
X0422970Y0018396D01*
X0422691Y0018351D01*
X0422411Y0018313D01*
X0422130Y0018281D01*
X0421848Y0018257D01*
X0421565Y0018240D01*
X0421283Y0018229D01*
X0421000Y0018226D01*
X0420717Y0018229D01*
X0420435Y0018240D01*
X0420152Y0018257D01*
X0419870Y0018281D01*
X0419589Y0018313D01*
X0419309Y0018351D01*
X0419030Y0018396D01*
X0418752Y0018447D01*
X0418475Y0018506D01*
X0418200Y0018571D01*
X0417926Y0018643D01*
X0417655Y0018722D01*
X0417385Y0018808D01*
X0417118Y0018900D01*
X0416853Y0018998D01*
X0416590Y0019103D01*
X0416330Y0019215D01*
X0416073Y0019332D01*
X0415819Y0019456D01*
X0415568Y0019587D01*
X0415320Y0019723D01*
X0415075Y0019866D01*
X0414835Y0020014D01*
X0414598Y0020168D01*
X0414364Y0020328D01*
X0414135Y0020494D01*
X0413910Y0020665D01*
X0413689Y0020842D01*
X0413473Y0021024D01*
X0413261Y0021211D01*
X0413054Y0021404D01*
X0412851Y0021601D01*
X0412654Y0021804D01*
X0412461Y0022011D01*
X0412274Y0022223D01*
X0412092Y0022439D01*
X0411915Y0022660D01*
X0411744Y0022885D01*
X0411578Y0023114D01*
X0411418Y0023348D01*
X0411264Y0023585D01*
X0411116Y0023825D01*
X0410973Y0024070D01*
X0410837Y0024318D01*
X0410706Y0024569D01*
X0410582Y0024823D01*
X0410465Y0025080D01*
X0410353Y0025340D01*
X0410248Y0025603D01*
X0410150Y0025868D01*
X0410058Y0026135D01*
X0409972Y0026405D01*
X0409893Y0026676D01*
X0409821Y0026950D01*
X0409756Y0027225D01*
X0409697Y0027502D01*
X0409646Y0027780D01*
X0409601Y0028059D01*
X0409563Y0028339D01*
X0409531Y0028620D01*
X0409507Y0028902D01*
X0409490Y0029185D01*
X0409479Y0029467D01*
X0409476Y0029750D01*
X0415726Y0316000D02*
X0415729Y0316283D01*
X0415740Y0316565D01*
X0415757Y0316848D01*
X0415781Y0317130D01*
X0415813Y0317411D01*
X0415851Y0317691D01*
X0415896Y0317970D01*
X0415947Y0318248D01*
X0416006Y0318525D01*
X0416071Y0318800D01*
X0416143Y0319074D01*
X0416222Y0319345D01*
X0416308Y0319615D01*
X0416400Y0319882D01*
X0416498Y0320147D01*
X0416603Y0320410D01*
X0416715Y0320670D01*
X0416832Y0320927D01*
X0416956Y0321181D01*
X0417087Y0321432D01*
X0417223Y0321680D01*
X0417366Y0321925D01*
X0417514Y0322165D01*
X0417668Y0322402D01*
X0417828Y0322636D01*
X0417994Y0322865D01*
X0418165Y0323090D01*
X0418342Y0323311D01*
X0418524Y0323527D01*
X0418711Y0323739D01*
X0418904Y0323946D01*
X0419101Y0324149D01*
X0419304Y0324346D01*
X0419511Y0324539D01*
X0419723Y0324726D01*
X0419939Y0324908D01*
X0420160Y0325085D01*
X0420385Y0325256D01*
X0420614Y0325422D01*
X0420848Y0325582D01*
X0421085Y0325736D01*
X0421325Y0325884D01*
X0421570Y0326027D01*
X0421818Y0326163D01*
X0422069Y0326294D01*
X0422323Y0326418D01*
X0422580Y0326535D01*
X0422840Y0326647D01*
X0423103Y0326752D01*
X0423368Y0326850D01*
X0423635Y0326942D01*
X0423905Y0327028D01*
X0424176Y0327107D01*
X0424450Y0327179D01*
X0424725Y0327244D01*
X0425002Y0327303D01*
X0425280Y0327354D01*
X0425559Y0327399D01*
X0425839Y0327437D01*
X0426120Y0327469D01*
X0426402Y0327493D01*
X0426685Y0327510D01*
X0426967Y0327521D01*
X0427250Y0327524D01*
X0427533Y0327521D01*
X0427815Y0327510D01*
X0428098Y0327493D01*
X0428380Y0327469D01*
X0428661Y0327437D01*
X0428941Y0327399D01*
X0429220Y0327354D01*
X0429498Y0327303D01*
X0429775Y0327244D01*
X0430050Y0327179D01*
X0430324Y0327107D01*
X0430595Y0327028D01*
X0430865Y0326942D01*
X0431132Y0326850D01*
X0431397Y0326752D01*
X0431660Y0326647D01*
X0431920Y0326535D01*
X0432177Y0326418D01*
X0432431Y0326294D01*
X0432682Y0326163D01*
X0432930Y0326027D01*
X0433175Y0325884D01*
X0433415Y0325736D01*
X0433652Y0325582D01*
X0433886Y0325422D01*
X0434115Y0325256D01*
X0434340Y0325085D01*
X0434561Y0324908D01*
X0434777Y0324726D01*
X0434989Y0324539D01*
X0435196Y0324346D01*
X0435399Y0324149D01*
X0435596Y0323946D01*
X0435789Y0323739D01*
X0435976Y0323527D01*
X0436158Y0323311D01*
X0436335Y0323090D01*
X0436506Y0322865D01*
X0436672Y0322636D01*
X0436832Y0322402D01*
X0436986Y0322165D01*
X0437134Y0321925D01*
X0437277Y0321680D01*
X0437413Y0321432D01*
X0437544Y0321181D01*
X0437668Y0320927D01*
X0437785Y0320670D01*
X0437897Y0320410D01*
X0438002Y0320147D01*
X0438100Y0319882D01*
X0438192Y0319615D01*
X0438278Y0319345D01*
X0438357Y0319074D01*
X0438429Y0318800D01*
X0438494Y0318525D01*
X0438553Y0318248D01*
X0438604Y0317970D01*
X0438649Y0317691D01*
X0438687Y0317411D01*
X0438719Y0317130D01*
X0438743Y0316848D01*
X0438760Y0316565D01*
X0438771Y0316283D01*
X0438774Y0316000D01*
X0438771Y0315717D01*
X0438760Y0315435D01*
X0438743Y0315152D01*
X0438719Y0314870D01*
X0438687Y0314589D01*
X0438649Y0314309D01*
X0438604Y0314030D01*
X0438553Y0313752D01*
X0438494Y0313475D01*
X0438429Y0313200D01*
X0438357Y0312926D01*
X0438278Y0312655D01*
X0438192Y0312385D01*
X0438100Y0312118D01*
X0438002Y0311853D01*
X0437897Y0311590D01*
X0437785Y0311330D01*
X0437668Y0311073D01*
X0437544Y0310819D01*
X0437413Y0310568D01*
X0437277Y0310320D01*
X0437134Y0310075D01*
X0436986Y0309835D01*
X0436832Y0309598D01*
X0436672Y0309364D01*
X0436506Y0309135D01*
X0436335Y0308910D01*
X0436158Y0308689D01*
X0435976Y0308473D01*
X0435789Y0308261D01*
X0435596Y0308054D01*
X0435399Y0307851D01*
X0435196Y0307654D01*
X0434989Y0307461D01*
X0434777Y0307274D01*
X0434561Y0307092D01*
X0434340Y0306915D01*
X0434115Y0306744D01*
X0433886Y0306578D01*
X0433652Y0306418D01*
X0433415Y0306264D01*
X0433175Y0306116D01*
X0432930Y0305973D01*
X0432682Y0305837D01*
X0432431Y0305706D01*
X0432177Y0305582D01*
X0431920Y0305465D01*
X0431660Y0305353D01*
X0431397Y0305248D01*
X0431132Y0305150D01*
X0430865Y0305058D01*
X0430595Y0304972D01*
X0430324Y0304893D01*
X0430050Y0304821D01*
X0429775Y0304756D01*
X0429498Y0304697D01*
X0429220Y0304646D01*
X0428941Y0304601D01*
X0428661Y0304563D01*
X0428380Y0304531D01*
X0428098Y0304507D01*
X0427815Y0304490D01*
X0427533Y0304479D01*
X0427250Y0304476D01*
X0426967Y0304479D01*
X0426685Y0304490D01*
X0426402Y0304507D01*
X0426120Y0304531D01*
X0425839Y0304563D01*
X0425559Y0304601D01*
X0425280Y0304646D01*
X0425002Y0304697D01*
X0424725Y0304756D01*
X0424450Y0304821D01*
X0424176Y0304893D01*
X0423905Y0304972D01*
X0423635Y0305058D01*
X0423368Y0305150D01*
X0423103Y0305248D01*
X0422840Y0305353D01*
X0422580Y0305465D01*
X0422323Y0305582D01*
X0422069Y0305706D01*
X0421818Y0305837D01*
X0421570Y0305973D01*
X0421325Y0306116D01*
X0421085Y0306264D01*
X0420848Y0306418D01*
X0420614Y0306578D01*
X0420385Y0306744D01*
X0420160Y0306915D01*
X0419939Y0307092D01*
X0419723Y0307274D01*
X0419511Y0307461D01*
X0419304Y0307654D01*
X0419101Y0307851D01*
X0418904Y0308054D01*
X0418711Y0308261D01*
X0418524Y0308473D01*
X0418342Y0308689D01*
X0418165Y0308910D01*
X0417994Y0309135D01*
X0417828Y0309364D01*
X0417668Y0309598D01*
X0417514Y0309835D01*
X0417366Y0310075D01*
X0417223Y0310320D01*
X0417087Y0310568D01*
X0416956Y0310819D01*
X0416832Y0311073D01*
X0416715Y0311330D01*
X0416603Y0311590D01*
X0416498Y0311853D01*
X0416400Y0312118D01*
X0416308Y0312385D01*
X0416222Y0312655D01*
X0416143Y0312926D01*
X0416071Y0313200D01*
X0416006Y0313475D01*
X0415947Y0313752D01*
X0415896Y0314030D01*
X0415851Y0314309D01*
X0415813Y0314589D01*
X0415781Y0314870D01*
X0415757Y0315152D01*
X0415740Y0315435D01*
X0415729Y0315717D01*
X0415726Y0316000D01*
D11*
X0405250Y0278500D02*
X0399250Y0278500D01*
X0399250Y0268500D02*
X0405250Y0268500D01*
X0405250Y0258500D02*
X0399250Y0258500D01*
X0399250Y0248500D02*
X0405250Y0248500D01*
X0360250Y0248500D02*
X0354250Y0248500D01*
X0354250Y0258500D02*
X0360250Y0258500D01*
X0360250Y0268500D02*
X0354250Y0268500D01*
X0354250Y0278500D02*
X0360250Y0278500D01*
X0360250Y0288500D02*
X0354250Y0288500D01*
X0354250Y0298500D02*
X0360250Y0298500D01*
X0310250Y0298500D02*
X0304250Y0298500D01*
X0304250Y0288500D02*
X0310250Y0288500D01*
X0310250Y0278500D02*
X0304250Y0278500D01*
X0304250Y0268500D02*
X0310250Y0268500D01*
X0310250Y0258500D02*
X0304250Y0258500D01*
X0304250Y0248500D02*
X0310250Y0248500D01*
X0310250Y0238500D02*
X0304250Y0238500D01*
X0304250Y0228500D02*
X0310250Y0228500D01*
X0354250Y0228500D02*
X0360250Y0228500D01*
X0360250Y0238500D02*
X0354250Y0238500D01*
X0429250Y0193500D02*
X0435250Y0193500D01*
X0435250Y0183500D02*
X0429250Y0183500D01*
X0405250Y0143500D02*
X0399250Y0143500D01*
X0399250Y0133500D02*
X0405250Y0133500D01*
X0405250Y0123500D02*
X0399250Y0123500D01*
X0399250Y0113500D02*
X0405250Y0113500D01*
X0397250Y0081500D02*
X0397250Y0075500D01*
X0387250Y0075500D02*
X0387250Y0081500D01*
X0387250Y0066500D02*
X0387250Y0060500D01*
X0397250Y0060500D02*
X0397250Y0066500D01*
X0360250Y0093500D02*
X0354250Y0093500D01*
X0354250Y0103500D02*
X0360250Y0103500D01*
X0360250Y0113500D02*
X0354250Y0113500D01*
X0354250Y0123500D02*
X0360250Y0123500D01*
X0360250Y0133500D02*
X0354250Y0133500D01*
X0354250Y0143500D02*
X0360250Y0143500D01*
X0360250Y0153500D02*
X0354250Y0153500D01*
X0354250Y0163500D02*
X0360250Y0163500D01*
X0310250Y0163500D02*
X0304250Y0163500D01*
X0304250Y0153500D02*
X0310250Y0153500D01*
X0310250Y0143500D02*
X0304250Y0143500D01*
X0304250Y0133500D02*
X0310250Y0133500D01*
X0310250Y0123500D02*
X0304250Y0123500D01*
X0304250Y0113500D02*
X0310250Y0113500D01*
X0310250Y0103500D02*
X0304250Y0103500D01*
X0304250Y0093500D02*
X0310250Y0093500D01*
X0245250Y0143500D02*
X0239250Y0143500D01*
X0239250Y0153500D02*
X0245250Y0153500D01*
X0245250Y0163500D02*
X0239250Y0163500D01*
X0239250Y0173500D02*
X0245250Y0173500D01*
X0245250Y0183500D02*
X0239250Y0183500D01*
X0239250Y0193500D02*
X0245250Y0193500D01*
X0245250Y0203500D02*
X0239250Y0203500D01*
X0239250Y0213500D02*
X0245250Y0213500D01*
X0245250Y0223500D02*
X0239250Y0223500D01*
X0239250Y0233500D02*
X0245250Y0233500D01*
X0245250Y0243500D02*
X0239250Y0243500D01*
X0239250Y0253500D02*
X0245250Y0253500D01*
X0245250Y0263500D02*
X0239250Y0263500D01*
X0239250Y0273500D02*
X0245250Y0273500D01*
X0245250Y0283500D02*
X0239250Y0283500D01*
X0185250Y0283500D02*
X0179250Y0283500D01*
X0179250Y0273500D02*
X0185250Y0273500D01*
X0185250Y0263500D02*
X0179250Y0263500D01*
X0179250Y0253500D02*
X0185250Y0253500D01*
X0185250Y0243500D02*
X0179250Y0243500D01*
X0179250Y0233500D02*
X0185250Y0233500D01*
X0185250Y0223500D02*
X0179250Y0223500D01*
X0179250Y0213500D02*
X0185250Y0213500D01*
X0185250Y0203500D02*
X0179250Y0203500D01*
X0179250Y0193500D02*
X0185250Y0193500D01*
X0185250Y0183500D02*
X0179250Y0183500D01*
X0179250Y0173500D02*
X0185250Y0173500D01*
X0185250Y0163500D02*
X0179250Y0163500D01*
X0179250Y0153500D02*
X0185250Y0153500D01*
X0185250Y0143500D02*
X0179250Y0143500D01*
X0157250Y0071500D02*
X0157250Y0065500D01*
X0147250Y0065500D02*
X0147250Y0071500D01*
X0137250Y0071500D02*
X0137250Y0065500D01*
X0137250Y0051500D02*
X0137250Y0045500D01*
X0147250Y0045500D02*
X0147250Y0051500D01*
X0157250Y0051500D02*
X0157250Y0045500D01*
X0157250Y0031500D02*
X0157250Y0025500D01*
X0147250Y0025500D02*
X0147250Y0031500D01*
X0137250Y0031500D02*
X0137250Y0025500D01*
X0030250Y0208500D02*
X0024250Y0208500D01*
X0024250Y0218500D02*
X0030250Y0218500D01*
X0030250Y0228500D02*
X0024250Y0228500D01*
X0024250Y0238500D02*
X0030250Y0238500D01*
D12*
X0127250Y0323500D03*
X0162250Y0318500D03*
X0207250Y0323500D03*
X0237250Y0323500D03*
X0387250Y0303500D03*
X0387250Y0193500D03*
X0133500Y0136000D03*
D13*
X0133500Y0146000D03*
X0117250Y0323500D03*
X0162250Y0328500D03*
X0197250Y0323500D03*
X0247250Y0323500D03*
X0387250Y0313500D03*
X0377250Y0193500D03*
D14*
X0272250Y0208500D03*
X0267250Y0178500D03*
X0267250Y0138500D03*
X0267250Y0113500D03*
X0242250Y0113500D03*
X0217250Y0113500D03*
X0192250Y0113500D03*
X0192250Y0073500D03*
X0217250Y0073500D03*
X0242250Y0073500D03*
X0267250Y0073500D03*
X0262250Y0033500D03*
X0272250Y0033500D03*
X0227250Y0033500D03*
X0217250Y0033500D03*
X0084750Y0203500D03*
X0092250Y0233500D03*
X0132250Y0233500D03*
X0044750Y0203500D03*
X0272250Y0248500D03*
X0272250Y0273500D03*
X0272250Y0313500D03*
D15*
X0307250Y0052500D03*
X0307250Y0034500D03*
D16*
X0087250Y0028500D03*
X0037250Y0058500D03*
X0029750Y0156000D03*
X0087250Y0178500D03*
D17*
X0027250Y0028500D03*
X0037250Y0028500D03*
X0047250Y0028500D03*
X0057250Y0028500D03*
X0067250Y0028500D03*
X0077250Y0028500D03*
X0077250Y0058500D03*
X0067250Y0058500D03*
X0057250Y0058500D03*
X0047250Y0058500D03*
X0029750Y0126000D03*
X0029750Y0136000D03*
X0029750Y0146000D03*
X0027250Y0178500D03*
X0037250Y0178500D03*
X0047250Y0178500D03*
X0057250Y0178500D03*
X0067250Y0178500D03*
X0077250Y0178500D03*
D18*
X0077250Y0196000D01*
X0169750Y0196000D01*
X0177250Y0203500D01*
X0182250Y0203500D01*
X0182250Y0193500D02*
X0177250Y0193500D01*
X0172250Y0188500D01*
X0097250Y0188500D01*
X0087250Y0178500D01*
X0067250Y0178500D02*
X0067250Y0213500D01*
X0182250Y0213500D01*
X0174750Y0221000D02*
X0177250Y0223500D01*
X0182250Y0223500D01*
X0174750Y0221000D02*
X0059750Y0221000D01*
X0059750Y0198500D01*
X0057250Y0196000D01*
X0057250Y0178500D01*
X0029750Y0156000D02*
X0087250Y0156000D01*
X0133500Y0109750D01*
X0133500Y0136000D01*
X0133500Y0109750D02*
X0137250Y0106000D01*
X0137250Y0068500D01*
X0157250Y0068500D02*
X0157250Y0173500D01*
X0182250Y0173500D01*
X0182250Y0153500D02*
X0169750Y0153500D01*
X0169750Y0041000D01*
X0157250Y0028500D01*
X0147250Y0028500D02*
X0147250Y0023500D01*
X0154750Y0016000D01*
X0339750Y0016000D01*
X0387250Y0063500D01*
X0387250Y0078500D02*
X0372250Y0078500D01*
X0357250Y0093500D01*
X0344750Y0093500D01*
X0344750Y0166000D01*
X0352250Y0173500D01*
X0357250Y0173500D01*
X0357250Y0228500D01*
X0357250Y0248500D02*
X0402250Y0248500D01*
X0402250Y0258500D02*
X0357250Y0258500D01*
X0357250Y0268500D02*
X0402250Y0268500D01*
X0402250Y0278500D02*
X0357250Y0278500D01*
X0357250Y0288500D02*
X0372250Y0288500D01*
X0387250Y0303500D01*
X0387250Y0313500D02*
X0357250Y0313500D01*
X0357250Y0298500D01*
X0326000Y0258500D02*
X0307250Y0258500D01*
X0307250Y0248500D02*
X0326000Y0248500D01*
X0326000Y0258500D01*
X0307250Y0238500D02*
X0289750Y0238500D01*
X0288500Y0313500D01*
X0272250Y0313500D01*
X0254750Y0323500D02*
X0247250Y0323500D01*
X0247250Y0338500D01*
X0197250Y0338500D01*
X0197250Y0323500D01*
X0207250Y0323500D02*
X0207250Y0313500D01*
X0167250Y0313500D01*
X0162250Y0318500D01*
X0132250Y0318500D01*
X0129750Y0321000D01*
X0114750Y0306000D01*
X0067250Y0306000D01*
X0067250Y0268500D01*
X0057250Y0268500D02*
X0037250Y0248500D01*
X0022250Y0248500D01*
X0014750Y0241000D01*
X0014750Y0146000D01*
X0029750Y0146000D01*
X0044750Y0203500D02*
X0044750Y0208500D01*
X0027250Y0208500D01*
X0027250Y0228500D02*
X0042250Y0228500D01*
X0082250Y0268500D01*
X0092250Y0268500D01*
X0132250Y0233500D01*
X0082250Y0268500D02*
X0077250Y0268500D01*
X0057250Y0268500D02*
X0057250Y0313500D01*
X0107250Y0313500D01*
X0117250Y0323500D01*
X0117250Y0338500D01*
X0197250Y0338500D01*
X0207250Y0313500D02*
X0207250Y0253500D01*
X0182250Y0253500D01*
X0207250Y0253500D02*
X0217250Y0253500D01*
X0237250Y0273500D01*
X0242250Y0273500D01*
X0254750Y0261000D02*
X0254750Y0323500D01*
X0272250Y0273500D02*
X0272250Y0263500D01*
X0269750Y0261000D01*
X0247250Y0243500D01*
X0242250Y0243500D01*
X0242250Y0233500D02*
X0261000Y0233500D01*
X0272250Y0208500D01*
X0257250Y0213500D02*
X0242250Y0213500D01*
X0257250Y0213500D02*
X0256000Y0079750D01*
X0267250Y0073500D01*
X0262250Y0053500D02*
X0307250Y0053500D01*
X0307250Y0052500D01*
X0302250Y0041000D02*
X0307250Y0036000D01*
X0307250Y0034500D01*
X0302250Y0041000D02*
X0262250Y0041000D01*
X0262250Y0033500D01*
X0267250Y0026000D02*
X0272250Y0031000D01*
X0272250Y0033500D01*
X0267250Y0026000D02*
X0249750Y0026000D01*
X0249750Y0041000D01*
X0217250Y0073500D01*
X0192250Y0073500D02*
X0217250Y0033500D01*
X0242250Y0073500D02*
X0262250Y0053500D01*
X0282250Y0093500D02*
X0307250Y0093500D01*
X0307250Y0103500D02*
X0291000Y0103500D01*
X0291000Y0178500D01*
X0267250Y0178500D01*
X0242250Y0193500D02*
X0229750Y0193500D01*
X0229750Y0176000D01*
X0192250Y0138500D01*
X0192250Y0113500D01*
X0267250Y0113500D02*
X0282250Y0113500D01*
X0282250Y0093500D01*
X0307250Y0113500D02*
X0322250Y0113500D01*
X0322250Y0123500D01*
X0307250Y0123500D01*
X0357250Y0123500D02*
X0402250Y0123500D01*
X0402250Y0113500D02*
X0357250Y0113500D01*
X0357250Y0133500D02*
X0402250Y0133500D01*
X0402250Y0143500D02*
X0357250Y0143500D01*
X0357250Y0163500D02*
X0369750Y0163500D01*
X0399750Y0193500D01*
X0432250Y0193500D01*
X0307250Y0228500D02*
X0287250Y0228500D01*
X0272250Y0248500D01*
X0254750Y0261000D02*
X0247250Y0253500D01*
X0242250Y0253500D01*
X0129750Y0321000D02*
X0127250Y0323500D01*
M02*
