%
M48
M72
T01C0.03200
T02C0.03937
T03C0.04000
T04C0.04400
T05C0.13000
%
T01
X133500Y136000
X133500Y146000
X192250Y113500
X217250Y113500
X242250Y113500
X267250Y113500
X267250Y138500
X267250Y178500
X272250Y208500
X272250Y248500
X272250Y273500
X272250Y313500
X247250Y323500
X237250Y323500
X207250Y323500
X197250Y323500
X162250Y318500
X162250Y328500
X127250Y323500
X117250Y323500
X132250Y233500
X92250Y233500
X84750Y203500
X44750Y203500
X192250Y73500
X217250Y73500
X242250Y73500
X267250Y73500
X262250Y33500
X272250Y33500
X227250Y33500
X217250Y33500
X377250Y193500
X387250Y193500
X387250Y303500
X387250Y313500
T02
X27250Y28500
X37250Y28500
X47250Y28500
X57250Y28500
X67250Y28500
X77250Y28500
X87250Y28500
X77250Y58500
X67250Y58500
X57250Y58500
X47250Y58500
X37250Y58500
X29750Y126000
X29750Y136000
X29750Y146000
X29750Y156000
X27250Y178500
X37250Y178500
X47250Y178500
X57250Y178500
X67250Y178500
X77250Y178500
X87250Y178500
T03
X27250Y208500
X27250Y218500
X27250Y228500
X27250Y238500
X182250Y233500
X182250Y223500
X182250Y213500
X182250Y203500
X182250Y193500
X182250Y183500
X182250Y173500
X182250Y163500
X182250Y153500
X182250Y143500
X242250Y143500
X242250Y153500
X242250Y163500
X242250Y173500
X242250Y183500
X242250Y193500
X242250Y203500
X242250Y213500
X242250Y223500
X242250Y233500
X242250Y243500
X242250Y253500
X242250Y263500
X242250Y273500
X242250Y283500
X182250Y283500
X182250Y273500
X182250Y263500
X182250Y253500
X182250Y243500
X307250Y238500
X307250Y228500
X307250Y248500
X307250Y258500
X307250Y268500
X307250Y278500
X307250Y288500
X307250Y298500
X357250Y298500
X357250Y288500
X357250Y278500
X357250Y268500
X357250Y258500
X357250Y248500
X357250Y238500
X357250Y228500
X402250Y248500
X402250Y258500
X402250Y268500
X402250Y278500
X432250Y193500
X432250Y183500
X402250Y143500
X402250Y133500
X402250Y123500
X402250Y113500
X397250Y78500
X387250Y78500
X387250Y63500
X397250Y63500
X357250Y93500
X357250Y103500
X357250Y113500
X357250Y123500
X357250Y133500
X357250Y143500
X357250Y153500
X357250Y163500
X307250Y163500
X307250Y153500
X307250Y143500
X307250Y133500
X307250Y123500
X307250Y113500
X307250Y103500
X307250Y93500
X307250Y52500
X307250Y34500
X157250Y28500
X147250Y28500
X137250Y28500
X137250Y48500
X147250Y48500
X157250Y48500
X157250Y68500
X147250Y68500
X137250Y68500
T04
X77250Y268500
X67250Y268500
X57250Y268500
T05
X67250Y327500
M30
