%
M48
M72
T01C0.03200
T02C0.04000
T03C0.04400
T04C0.13000
%
T01
X144735Y134832
X154735Y134832
X209735Y102332
X248485Y101082
X280985Y102332
X304735Y96082
X280985Y62332
X248485Y61082
X255985Y38582
X255985Y28582
X215985Y28582
X215985Y38582
X209735Y62332
X304735Y136082
X312235Y168582
X312235Y208582
X307235Y223582
X307235Y263582
X299735Y274832
X299735Y314832
X259735Y321082
X259735Y331082
X228485Y331082
X228485Y321082
X189735Y317332
X189735Y327332
X150985Y328582
X150985Y318582
X159735Y239832
X119735Y239832
X109735Y203582
X69735Y203582
X414735Y304832
X414735Y314832
X420985Y193582
X420985Y183582
T02
X54735Y14832
X64735Y14832
X74735Y14832
X84735Y14832
X94735Y14832
X104735Y14832
X114735Y14832
X144735Y28582
X154735Y28582
X164735Y28582
X164735Y48582
X154735Y48582
X144735Y48582
X144735Y68582
X154735Y68582
X164735Y68582
X209735Y144832
X209735Y154832
X209735Y164832
X209735Y174832
X209735Y184832
X209735Y194832
X209735Y204832
X209735Y214832
X209735Y224832
X209735Y234832
X209735Y244832
X209735Y254832
X209735Y264832
X209735Y274832
X209735Y284832
X269735Y284832
X269735Y274832
X269735Y264832
X269735Y254832
X269735Y244832
X269735Y234832
X269735Y224832
X269735Y214832
X269735Y204832
X269735Y194832
X269735Y184832
X269735Y174832
X269735Y164832
X269735Y154832
X269735Y144832
X334735Y144832
X334735Y134832
X334735Y124832
X334735Y114832
X334735Y104832
X334735Y94832
X384735Y94832
X384735Y104832
X384735Y114832
X384735Y124832
X384735Y134832
X384735Y144832
X384735Y154832
X384735Y164832
X429735Y144832
X429735Y134832
X429735Y124832
X429735Y114832
X424735Y77332
X424735Y67332
X410985Y67332
X410985Y77332
X334735Y53832
X334735Y35832
X334735Y154832
X334735Y164832
X334735Y229832
X334735Y239832
X334735Y249832
X334735Y259832
X334735Y269832
X334735Y279832
X334735Y289832
X334735Y299832
X384735Y299832
X384735Y289832
X384735Y279832
X384735Y269832
X384735Y259832
X384735Y249832
X384735Y239832
X384735Y229832
X429735Y249832
X429735Y259832
X429735Y269832
X429735Y279832
X459735Y194832
X459735Y181082
X114735Y164832
X104735Y164832
X94735Y164832
X84735Y164832
X74735Y164832
X64735Y164832
X54735Y164832
X57235Y142332
X57235Y132332
X54735Y209832
X54735Y219832
X54735Y229832
X54735Y239832
X40985Y276082
X40985Y289832
T03
X84735Y269832
X94735Y269832
X104735Y269832
T04
X94735Y328832
M30
